<?xml version="1.0" encoding="UTF-8" standalone="no"?>
<!-- Created with Inkscape (http://www.inkscape.org/) -->

<svg
   xmlns:dc="http://purl.org/dc/elements/1.1/"
   xmlns:cc="http://creativecommons.org/ns#"
   xmlns:rdf="http://www.w3.org/1999/02/22-rdf-syntax-ns#"
   xmlns:svg="http://www.w3.org/2000/svg"
   xmlns="http://www.w3.org/2000/svg"
   xmlns:sodipodi="http://sodipodi.sourceforge.net/DTD/sodipodi-0.dtd"
   xmlns:inkscape="http://www.inkscape.org/namespaces/inkscape"
   width="12in"
   height="12in"
   viewBox="0 0 304.8 304.80001"
   version="1.1"
   id="svg331"
   inkscape:version="0.92.2 (5c3e80d, 2017-08-06)"
   sodipodi:docname="DPRGLogoTileOversize.svg">
  <defs
     id="defs325">
    <pattern
       y="0"
       x="0"
       height="6"
       width="6"
       patternUnits="userSpaceOnUse"
       id="EMFhbasepattern" />
  </defs>
  <sodipodi:namedview
     id="base"
     pagecolor="#ffffff"
     bordercolor="#666666"
     borderopacity="1.0"
     inkscape:pageopacity="0.0"
     inkscape:pageshadow="2"
     inkscape:zoom="0.51086293"
     inkscape:cx="510.66218"
     inkscape:cy="695.2862"
     inkscape:document-units="mm"
     inkscape:current-layer="layer1"
     showgrid="false"
     units="in"
     inkscape:window-width="1858"
     inkscape:window-height="1058"
     inkscape:window-x="1912"
     inkscape:window-y="-8"
     inkscape:window-maximized="1" />
  <metadata
     id="metadata328">
    <rdf:RDF>
      <cc:Work
         rdf:about="">
        <dc:format>image/svg+xml</dc:format>
        <dc:type
           rdf:resource="http://purl.org/dc/dcmitype/StillImage" />
        <dc:title></dc:title>
      </cc:Work>
    </rdf:RDF>
  </metadata>
  <g
     inkscape:label="Layer 1"
     inkscape:groupmode="layer"
     id="layer1"
     transform="translate(0,7.8000168)">
    <g
       inkscape:tile-y0="240"
       inkscape:tile-x0="240"
       id="use11253"
       transform="matrix(0.07000434,0,0,0.07000434,-5693.7902,280.66097)">
      <path
         style="fill:#ff5555;fill-rule:evenodd;stroke:#ff8080;stroke-width:4.80000019;stroke-linecap:butt;stroke-linejoin:miter;stroke-miterlimit:4;stroke-dasharray:none;stroke-opacity:1"
         d="m 288,786.517 v 96"
         id="path513"
         inkscape:connector-curvature="0"
         sodipodi:nodetypes="cc" />
      <path
         sodipodi:nodetypes="cc"
         inkscape:connector-curvature="0"
         id="path515"
         d="M 336,834.517 H 240"
         style="fill:#ff5555;fill-rule:evenodd;stroke:#ff8080;stroke-width:4.80000019;stroke-linecap:butt;stroke-linejoin:miter;stroke-miterlimit:4;stroke-dasharray:none;stroke-opacity:1" />
    </g>
    <g
       inkscape:tile-y0="240"
       inkscape:tile-x0="240"
       id="use11255"
       transform="matrix(0.07000434,0,0,0.07000434,-5693.7902,585.46097)">
      <path
         style="fill:#ff5555;fill-rule:evenodd;stroke:#ff8080;stroke-width:4.80000019;stroke-linecap:butt;stroke-linejoin:miter;stroke-miterlimit:4;stroke-dasharray:none;stroke-opacity:1"
         d="m 288,786.517 v 96"
         id="path519"
         inkscape:connector-curvature="0"
         sodipodi:nodetypes="cc" />
      <path
         sodipodi:nodetypes="cc"
         inkscape:connector-curvature="0"
         id="path521"
         d="M 336,834.517 H 240"
         style="fill:#ff5555;fill-rule:evenodd;stroke:#ff8080;stroke-width:4.80000019;stroke-linecap:butt;stroke-linejoin:miter;stroke-miterlimit:4;stroke-dasharray:none;stroke-opacity:1" />
    </g>
    <g
       inkscape:tile-y0="240"
       inkscape:tile-x0="240"
       id="use11279"
       transform="matrix(0.07000434,0,0,0.07000434,-5388.9902,280.66097)">
      <path
         style="fill:#ff5555;fill-rule:evenodd;stroke:#ff8080;stroke-width:4.80000019;stroke-linecap:butt;stroke-linejoin:miter;stroke-miterlimit:4;stroke-dasharray:none;stroke-opacity:1"
         d="m 288,786.517 v 96"
         id="path525"
         inkscape:connector-curvature="0"
         sodipodi:nodetypes="cc" />
      <path
         sodipodi:nodetypes="cc"
         inkscape:connector-curvature="0"
         id="path527"
         d="M 336,834.517 H 240"
         style="fill:#ff5555;fill-rule:evenodd;stroke:#ff8080;stroke-width:4.80000019;stroke-linecap:butt;stroke-linejoin:miter;stroke-miterlimit:4;stroke-dasharray:none;stroke-opacity:1" />
    </g>
    <g
       inkscape:tile-y0="240"
       inkscape:tile-x0="240"
       id="use11281"
       transform="matrix(0.07000434,0,0,0.07000434,-5388.9902,585.46097)">
      <path
         style="fill:#ff5555;fill-rule:evenodd;stroke:#ff8080;stroke-width:4.80000019;stroke-linecap:butt;stroke-linejoin:miter;stroke-miterlimit:4;stroke-dasharray:none;stroke-opacity:1"
         d="m 288,786.517 v 96"
         id="path531"
         inkscape:connector-curvature="0"
         sodipodi:nodetypes="cc" />
      <path
         sodipodi:nodetypes="cc"
         inkscape:connector-curvature="0"
         id="path533"
         d="M 336,834.517 H 240"
         style="fill:#ff5555;fill-rule:evenodd;stroke:#ff8080;stroke-width:4.80000019;stroke-linecap:butt;stroke-linejoin:miter;stroke-miterlimit:4;stroke-dasharray:none;stroke-opacity:1" />
    </g>
    <path
       d="M 48.937239,120.64601 A 138.30463,134.56842 0 0 1 187.24124,-13.92209 138.30463,134.56842 0 1 1 48.937239,120.64601 Z"
       style="fill:#1b1918;fill-rule:evenodd;stroke:#1b1918;stroke-width:0.64320433;stroke-linecap:butt;stroke-linejoin:miter;stroke-dasharray:none"
       id="path815"
       inkscape:connector-curvature="0" />
    <path
       d="m 68.307238,117.48531 c 0,-0.3419 38.425002,-0.7926 42.112002,-1.1805 16.449,-12.5371 14.973,-54.2533 16.027,-65.6541 -1.271,-3.3942 -3.918,-8.6068 -3.814,-10.1823 l 7.974,-20.3648 c 0.116,-2.2624 -0.534,-6.3913 0.347,-6.7881 1.604,-0.7221 24.428,3.2926 33.629,-0.3395 7.165,-2.828 16.285,-9.6326005 21.495,-8.4852005 4.622,1.0179 9.567,3.5755 13.773,2.9617 2.111,-0.3081 4.945,-2.8652 6.335,-0.9251 14.674,20.4791005 28.062,56.5437005 44.03,61.4331005 10.324,3.1609 14.476,4.3657 27.738,5.0812 3.532,0.1907 12.968,-3.7827 16.398,-4.629 0.609,-0.1499 1.546,0.5709 1.453,1.1787 -1.565,10.2508 -1.747,24.0144 -9.533,32.3101 l -26.348,8.8246 c -15.253,10.4613 -39.738,21.7027 -45.759,31.384 -6.021,9.681 -3.852,18.5895 0.355,20.8858 5.696,3.1088 20.634,3.9684 17.089,9.3268 l -16.062,24.2739 -19.762,8.4852 c -10.169,9.3902 -30.484,32.4856 -30.508,28.171 l -0.347,-62.4512 -96.883002,-0.058 z"
       style="fill:#008bd0;fill-rule:evenodd;stroke-width:2.97779799"
       id="path817"
       inkscape:connector-curvature="0" />
    <path
       inkscape:connector-curvature="0"
       id="path819"
       style="fill:#ffffff;fill-rule:evenodd;stroke:#d9dadb;stroke-width:0.64320439;stroke-linecap:butt;stroke-linejoin:miter;stroke-dasharray:none"
       d="m 218.59624,152.18111 c 0.568,-0.126 1.158,-0.1934 1.764,-0.1934 2.883,0 5.417,1.5026 6.837,3.752 h 23.643 v -5.622 h 6.699 l 11.651,4.8625 v 1.2687 h -12.969 v 7.2132 h 12.969 v 1.5046 l -11.731,4.6273 h -6.619 v -5.6221 h -23.6 c -1.412,2.2866 -3.969,3.8205 -6.88,3.8205 -4.158,0 -7.597,-3.1303 -8.001,-7.1158 l -20.002,-11.8159 c -0.05,0 -0.104,0 -0.156,0 -4.629,0 -8.405,-3.7103 -8.405,-8.2602 0,-2.4685 1.112,-4.689 2.868,-6.2045 l -0.1,-7.6507 c -2.191,0.042 -4.283,0.048 -6.279,0.024 v 5.6805 c 0,1.6738 -1.393,3.0426 -3.096,3.0426 h -9.054 v 5.0789 h -11.197 v -1.5076 h -14.695 c -0.323,0.6435 -0.997,1.0881 -1.774,1.0881 -1.089,0 -1.977,-0.8726 -1.977,-1.9427 0,-1.0701 0.888,-1.9427 1.977,-1.9427 0.777,0 1.451,0.4446 1.773,1.0878 h 14.696 v -1.8621 h -6.104 c -1.703,0 -3.096,-1.3688 -3.096,-3.0426 v -26.1985 c 0,-1.6738 1.393,-3.0426 3.096,-3.0426 h 26.355 c 1.703,0 3.096,1.3688 3.096,3.0426 v 6.5699 c 2.072,-0.03 4.252,-0.028 6.541,0.01 l 0.143,-6.546 c -1.645,-1.5097 -2.676,-3.6575 -2.676,-6.0348 0,-3.6672 2.454,-6.7883 5.831,-7.8614 l 12.676,-20.7745 c 0,-0.012 -0.01,-0.023 -0.02,-0.035 h -22.02 v 5.622 h -4.037 -1.74 v -1.749 l -12.641,-4.2181 v -1.5038 h 12.97 l -0.04,-4.6086 h -12.969 v -1.2688 l 12.75,-4.5649 -0.01,-1.5634 h 5.728 v 5.6227 h 23.028 c 1.475,-1.8179 3.747,-2.9877 6.288,-2.9877 4.429,0 8.041,3.55 8.041,7.9024 0,3.6244 -2.506,6.6915 -5.902,7.6161 l -10.89,22.4989 40.359,2.0294 v -0.6358 c 0,-1.1953 0.859,-2.1733 1.909,-2.1733 h 20.516 c 0.993,0 1.815,0.8756 1.901,1.9817 h 21.889 c 1.468,-1.0784 3.288,-1.7184 5.254,-1.7184 1.945,0 3.746,0.6264 5.205,1.683 h 18.015 v -4.0318 h 18.088 v 21.0833 h -18.088 v -3.4196 h -17.623 c -1.523,1.2375 -3.474,1.9829 -5.597,1.9829 -2.102,0 -4.035,-0.7315 -5.552,-1.9475 h -21.583 v 0.2197 c 0,1.1949 -0.859,2.1729 -1.909,2.1729 h -8.678 l -0.01,9.0363 h 8.688 c 1.05,0 1.909,0.978 1.909,2.1733 v 0.1753 h 21.223 c 1.468,-1.078 3.288,-1.718 5.255,-1.718 1.806,0 3.489,0.5405 4.889,1.4648 h 18.791 v -4.4935 h 18.089 v 21.0833 h -18.089 v -2.9576 h -17.826 c -1.558,1.3671 -3.61,2.2004 -5.854,2.2004 -2.102,0 -4.036,-0.7312 -5.553,-1.9471 h -20.93 c -0.07,1.1268 -0.898,2.0256 -1.904,2.0256 h -20.516 c -1.05,0 -1.909,-0.9782 -1.909,-2.1732 v -0.6536 l -37.172,2.1154 z" />
    <path
       inkscape:connector-curvature="0"
       id="path821"
       style="fill:#1b1918;fill-rule:evenodd;stroke-width:2.97779822"
       d="m 156.04724,131.89801 c -0.846,-0.6264 2.214,-9.8209 2.2,-12.9825 -0.01,-3.1615 -2.975,-11.2872 -2.176,-11.6163 0.799,-0.3295 9.637,9.263 9.629,11.7527 0,2.4897 -8.807,13.4729 -9.653,12.8461 z" />
    <path
       d="m 11.833238,120.58401 c 0,-96.5437 78.741,-175.2848 175.284002,-175.2848 96.542,0 175.283,78.7411 175.283,175.2848 0,96.5436 -78.741,175.2851 -175.283,175.2851 -96.543002,0 -175.284002,-78.7415 -175.284002,-175.2851 z m 34.920001,0 c 0,-75.9748 63.054001,-137.9402 140.364001,-137.9402 77.309,0 140.363,61.9654 140.363,137.9402 0,75.9748 -63.054,137.9402 -140.363,137.9402 -77.31,0 -140.364001,-61.9654 -140.364001,-137.9402 z"
       style="fill:#008bd0;fill-rule:evenodd;stroke:#1b1918;stroke-width:0.64320433;stroke-linecap:butt;stroke-linejoin:miter;stroke-dasharray:none"
       id="path824"
       inkscape:connector-curvature="0" />
    <path
       d="m 330.33824,201.68851 -10.062,-2.1313 1.317,-2.2872 6.909,1.6726 -4.099,-6.5517 0.865,-1.5025 6.996,1.5208 -4.223,-6.3367 1.14,-1.9799 5.886,9.3826 -0.857,1.4884 -7.12,-1.4905 4.113,6.7125 z m 8.747,-17.3397 -10.232,-0.5352 1.022,-2.4702 7.051,0.5751 -4.871,-5.8441 0.67,-1.6224 7.119,0.4106 -4.967,-5.6108 0.884,-2.1382 6.993,8.366 -0.665,1.6073 -7.239,-0.3619 4.906,6.0011 z m 6.542,-18.6568 -10.186,1.2712 0.666,-2.6179 7.048,-0.6724 -5.627,-4.9124 0.437,-1.7198 7.093,-0.8461 -5.691,-4.6656 0.576,-2.2659 8.075,7.0284 -0.433,1.7038 -7.203,0.9161 5.683,5.0608 z m 0.878,-19.8889 0.08,-0.4458 c 0.04,-0.219 0.119,-0.3598 0.244,-0.4274 0.13,-0.062 0.35,-0.062 0.666,0.01 l 1.785,0.382 c 0.345,0.074 0.561,0.1715 0.644,0.2881 0.08,0.1198 0.08,0.4283 0,0.9284 l -0.382,2.2143 c -0.04,0.219 -0.123,0.3592 -0.253,0.4256 -0.128,0.062 -0.353,0.061 -0.668,-0.01 l -1.786,-0.3822 c -0.337,-0.072 -0.549,-0.1692 -0.632,-0.2849 -0.08,-0.1207 -0.08,-0.4289 0,-0.929 z m 2.581,-7.6324 0.258,-3.3399 c 0.141,-1.8225 0,-3.1229 -0.412,-3.8919 -0.417,-0.7739 -1.186,-1.2135 -2.308,-1.3189 -0.973,-0.092 -1.723,0.1421 -2.247,0.7049 -0.524,0.5582 -0.834,1.4663 -0.931,2.7191 l -0.353,4.5635 z m 1.568,2.7817 -9.456,-0.8889 0.554,-7.1577 c 0.159,-2.0534 0.687,-3.5908 1.585,-4.6163 0.894,-1.0261 2.095,-1.4659 3.605,-1.3243 1.584,0.1491 2.731,0.8438 3.435,2.0832 0.704,1.2437 0.963,3.0409 0.78,5.4001 z m 1.209,-17.3804 -9.49,0.2272 -0.153,-9.6066 c -0.01,-0.8871 0.121,-1.5297 0.403,-1.9276 0.282,-0.3976 0.75,-0.6023 1.401,-0.6179 l 2.098,-0.05 c 0.651,-0.016 1.125,0.1706 1.42,0.5591 0.294,0.384 0.45,1.0196 0.464,1.8981 l 0.113,7.0467 3.703,-0.089 z m -7.991,-8.3125 0.1,5.9406 2.517,-0.06 -0.1,-5.9406 c 0,-0.4498 -0.07,-0.7596 -0.191,-0.9251 -0.118,-0.1651 -0.318,-0.2445 -0.594,-0.2377 l -0.984,0.024 c -0.277,0.01 -0.474,0.095 -0.587,0.2663 -0.113,0.1713 -0.168,0.4839 -0.161,0.9338 z m -1.399,-14.6646 0.738,5.8807 2.601,-0.4219 -0.738,-5.8809 c -0.06,-0.4455 -0.154,-0.7436 -0.29,-0.8918 -0.136,-0.1476 -0.343,-0.1989 -0.616,-0.1546 l -1.082,0.1756 c -0.274,0.045 -0.46,0.1597 -0.554,0.3448 -0.09,0.185 -0.115,0.503 -0.06,0.9481 z m 8.836,7.1527 -9.398,1.5256 -1.194,-9.5101 c -0.109,-0.8699 -0.04,-1.5262 0.193,-1.9595 0.236,-0.4375 0.678,-0.7089 1.322,-0.8136 l 2.208,-0.3584 c 0.637,-0.1026 1.121,0.018 1.456,0.3628 0.33,0.341 0.55,0.9512 0.659,1.8208 l 0.182,1.4486 2.929,-5.6014 0.464,3.6959 -3.004,5.0059 0.305,2.4265 3.56,-0.5777 z m -11.882,-24.2576 1.751,7.8718 5.753,-1.6375 -1.751,-7.8718 -1.96,0.558 0.914,4.1088 -1.637,0.4658 -1.464,-6.5787 3.183,-0.906 c 0.842,-0.24 1.456,-0.2199 1.844,0.065 0.387,0.284 0.698,0.9499 0.932,2.0017 l 1.666,7.4883 c 0.234,1.0518 0.239,1.8046 0.02,2.2621 -0.222,0.4579 -0.755,0.8041 -1.597,1.0445 l -4.86,1.3827 c -0.838,0.2387 -1.449,0.2175 -1.836,-0.067 -0.388,-0.2843 -0.698,-0.9499 -0.932,-2.0018 l -1.666,-7.4883 c -0.232,-1.0432 -0.241,-1.7948 -0.03,-2.2506 0.215,-0.4599 0.714,-0.8011 1.491,-1.0222 l 0.246,-0.07 0.92,2.3646 z m 1.368,-9.9169 -0.132,-0.4289 c -0.06,-0.2104 -0.06,-0.3781 0.02,-0.5068 0.08,-0.1263 0.276,-0.2501 0.58,-0.3693 l 1.719,-0.6728 c 0.332,-0.1305 0.563,-0.1672 0.686,-0.113 0.125,0.058 0.262,0.3244 0.41,0.8047 l 0.655,2.1287 c 0.06,0.2102 0.05,0.3794 -0.03,0.5096 -0.08,0.1262 -0.279,0.2514 -0.583,0.3705 l -1.719,0.673 c -0.326,0.1269 -0.553,0.1626 -0.676,0.1093 -0.125,-0.058 -0.262,-0.3246 -0.41,-0.805 z m -0.851,-8.1159 -3.237,-7.7799 -5.372,2.8401 3.236,7.7799 z m -3.947,4.9543 c -0.783,0.4142 -1.387,0.524 -1.814,0.3324 -0.427,-0.1921 -0.845,-0.7784 -1.256,-1.7676 l -3.107,-7.468 c -0.415,-0.9968 -0.55,-1.7378 -0.406,-2.2269 0.144,-0.4888 0.607,-0.9376 1.39,-1.3514 l 4.539,-2.3994 c 0.786,-0.416 1.393,-0.5275 1.822,-0.3318 0.428,0.1957 0.846,0.782 1.255,1.7638 l 3.107,7.4676 c 0.411,0.989 0.544,1.7266 0.402,2.2193 -0.143,0.4929 -0.607,0.9473 -1.393,1.3629 z m -11.18,-22.4002 2.725,5.0812 2.25,-1.5297 -2.724,-5.0815 c -0.207,-0.3849 -0.401,-0.6161 -0.577,-0.6929 -0.177,-0.076 -0.385,-0.032 -0.622,0.129 l -0.937,0.6364 c -0.237,0.1612 -0.368,0.3487 -0.39,0.56 -0.02,0.2116 0.07,0.5128 0.275,0.8973 z m 10.632,2.694 -8.133,5.5299 -4.407,-8.2171 c -0.403,-0.7515 -0.571,-1.3833 -0.504,-1.8857 0.07,-0.5057 0.379,-0.9497 0.937,-1.3287 l 1.911,-1.2992 c 0.551,-0.3749 1.039,-0.4758 1.468,-0.3061 0.422,0.1688 0.837,0.6326 1.24,1.3845 l 0.671,1.2513 0.754,-6.435 1.712,3.1928 -1.029,5.9214 1.125,2.0968 3.08,-2.0947 z m -19.534,-16.5934 4.549,6.2913 4.606,-4.2146 -4.549,-6.2906 -1.569,1.4358 2.374,3.2835 -1.31,1.1994 -3.803,-5.2581 2.549,-2.3318 c 0.674,-0.6169 1.239,-0.8909 1.698,-0.8177 0.458,0.074 0.99,0.5284 1.598,1.3689 l 4.328,5.9848 c 0.608,0.8405 0.895,1.5191 0.866,2.0387 -0.03,0.5198 -0.383,1.0866 -1.057,1.7035 l -3.892,3.5604 c -0.671,0.6143 -1.234,0.885 -1.692,0.8118 -0.458,-0.074 -0.991,-0.528 -1.598,-1.3688 l -4.328,-5.9848 c -0.603,-0.8337 -0.894,-1.5097 -0.87,-2.0242 0.02,-0.5175 0.347,-1.0636 0.968,-1.6325 l 0.198,-0.1809 1.724,1.7029 z"
       style="fill:#ffffff;fill-rule:evenodd;stroke:#3b3b3b;stroke-width:0.64320433;stroke-linecap:butt;stroke-linejoin:miter;stroke-dasharray:none"
       id="path826"
       inkscape:connector-curvature="0" />
    <path
       d="m 173.46524,271.45711 -3.842,-0.5535 c -2.044,-0.2947 -3.537,-0.1957 -4.481,0.2961 -0.945,0.4959 -1.526,1.4527 -1.737,2.8699 -0.188,1.2655 0.02,2.271 0.636,3.0237 0.612,0.7533 1.61,1.2316 2.995,1.4308 l 5.263,0.7584 z m 3.318,-1.8999 -1.841,12.365 -8.215,-1.1832 c -2.341,-0.3371 -4.063,-1.1277 -5.166,-2.3678 -1.099,-1.2428 -1.506,-2.8386 -1.216,-4.7872 0.173,-1.1578 0.575,-2.1603 1.203,-3.0119 0.628,-0.8558 1.428,-1.4822 2.402,-1.8846 0.602,-0.2559 1.331,-0.3996 2.178,-0.4327 0.846,-0.034 1.917,0.043 3.203,0.2287 z m -18.323,-2.5579 -8.673,8.3984 -2.402,-0.5993 -3.579,-11.4575 2.801,0.6993 0.723,2.5001 6.774,1.6909 1.861,-1.8545 z m -5.891,2.7766 -4.695,-1.1722 1.305,4.727 z m -11.398,-7.1322 -3.649,9.5948 -2.439,-0.8809 2.966,-7.7979 -7.772,-2.8062 0.683,-1.7965 z m -12.93,-4.6329 -4.499,9.2465 -2.351,-1.0825 3.657,-7.5148 -7.494,-3.4512 0.842,-1.731 z m -11.212,-4.7976 -10.837,5.563 -2.12,-1.2537 0.03,-11.9561 2.471,1.4619 -0.06,2.5921 5.976,3.5347 2.342,-1.2437 z m -6.478,0.9819 -4.142,-2.4499 -0.176,4.8844 z m -21.854002,-8.5838 5.87,4.1904 1.318,-1.7399 -5.554,-3.9652 c -0.874,-0.6234 -1.36,-1.1763 -1.455,-1.659 -0.1,-0.4859 0.139,-1.1066 0.71,-1.86 l 0.858,-1.1327 c 0.573,-0.7565 1.116,-1.1592 1.632,-1.2112 0.513,-0.055 1.201,0.2267 2.06,0.8405 l 5.535,3.9506 c 0.880002,0.6285 1.371002,1.1897 1.477002,1.6853 0.106,0.4956 -0.128,1.1191 -0.702,1.8757 l -0.172,0.227 -2.104002,-0.9871 0.735,-0.9709 -6.27,-4.4755 -1.427,1.8827 5.525,3.9433 c 0.87,0.6211 1.358,1.1799 1.458,1.6764 0.1,0.4963 -0.134,1.1203 -0.702,1.8698 l -0.699,0.9223 c -0.561,0.7403 -1.102,1.1394 -1.62,1.1946 -0.518,0.055 -1.213,-0.2302 -2.083,-0.8516 l -5.064,-3.615 c -0.86,-0.6137 -1.347,-1.1669 -1.467,-1.6575 -0.119,-0.4913 0.07,-1.0681 0.579,-1.7337 l 0.149,-0.1978 2.082,0.9156 z m -7.575,-16.9972 -7.753,6.9239 -6.463,-6.7952 c -0.598,-0.6276 -0.908,-1.1864 -0.936,-1.6729 -0.03,-0.4868 0.227,-0.9673 0.759,-1.4426 l 1.714,-1.5312 c 0.532,-0.4748 1.05,-0.6783 1.551,-0.609 0.499,0.066 1.048,0.4119 1.639,1.0335 l 4.741,4.9844 3.025,-2.7019 z m -12.137,-0.2819 3.997,4.2021 2.057,-1.8367 -3.997,-4.2022 c -0.303,-0.3182 -0.561,-0.4947 -0.769,-0.5289 -0.208,-0.035 -0.427,0.051 -0.653,0.2527 l -0.803,0.7176 c -0.227,0.2019 -0.332,0.4062 -0.313,0.6096 0.02,0.2038 0.178,0.4676 0.481,0.7858 z m 1.449,-10.889 -8.46,6.0973 -6.788,-8.8273 1.494,-1.0769 5.232,6.804 1.844,-1.3292 -3.047,-3.9628 1.457,-1.0503 3.047,3.963 2.081,-1.4996 -5.311,-6.9076 1.583,-1.1416 z m -21.285999,-14.3041 3.1,4.8607 2.484999,-1.4822 -3.099999,-4.8607 c -0.235,-0.3684 -0.454,-0.5889 -0.651,-0.661 -0.198,-0.073 -0.429,-0.029 -0.691,0.1267 l -1.033,0.6166 c -0.263,0.1564 -0.406,0.3372 -0.428,0.5399 -0.02,0.2034 0.08,0.4915 0.318,0.8599 z m 11.868999,2.5212 -8.979999,5.3573 -5.012,-7.8602 c -0.459,-0.7194 -0.654,-1.3246 -0.586,-1.8072 0.07,-0.4859 0.409,-0.9137 1.025,-1.2815 l 2.109,-1.2581 c 0.609,-0.3634 1.151,-0.4635 1.63,-0.3023 0.473,0.1591 0.941,0.602 1.399,1.3207 l 0.763999,1.1971 0.754,-6.1809 1.948,3.0544 -1.067,5.6894 1.278,2.0059 3.402,-2.0289 z m -20.580999,-18.3964 3.165,6.3621 2.009,-0.9325 -2.994,-6.0206 c -0.471,-0.9466 -0.635,-1.6551 -0.485,-2.1239 0.148,-0.4723 0.659,-0.911 1.529,-1.3148 l 1.308,-0.6075 c 0.874,-0.4056 1.55,-0.5133 2.031,-0.3241 0.48,0.1854 0.953,0.7456 1.417,1.6779 l 2.984,5.999 c 0.475,0.954 0.638,1.6717 0.491,2.1564 -0.146,0.485 -0.655,0.9275 -1.529,1.3331 l -0.262,0.1216 -1.385,-1.8272 1.121,-0.5205 -3.381,-6.7961 -2.174,1.0096 2.979,5.9875 c 0.469,0.9429 0.63,1.6573 0.479,2.1402 -0.153,0.483 -0.662,0.9257 -1.528,1.3278 l -1.065,0.4942 c -0.854,0.3967 -1.527,0.5022 -2.012,0.3153 -0.486,-0.1871 -0.962,-0.7551 -1.431,-1.6983 l -2.731,-5.4889 c -0.464,-0.9322 -0.626,-1.6407 -0.495,-2.1278 0.132,-0.4868 0.583,-0.9072 1.351,-1.2637 l 0.229,-0.106 1.398,1.7535 z m 2.35,-10.8993 -3.023,-7.73 -6.17,2.2449 3.023,7.7298 z m -4.743,4.3937 c -0.899,0.3272 -1.577,0.3791 -2.037,0.158 -0.46,-0.2213 -0.881,-0.8191 -1.265,-1.8019 l -2.902001,-7.4201 c -0.387,-0.99 -0.482,-1.7112 -0.287,-2.1664 0.196,-0.4556 0.742,-0.8443 1.641001,-1.1714 l 5.213,-1.8966 c 0.903,-0.3286 1.585,-0.382 2.046,-0.1573 0.462,0.2249 0.882,0.8236 1.264,1.7986 l 2.901,7.4195 c 0.385,0.9831 0.479,1.7001 0.284,2.1597 -0.194,0.4588 -0.742,0.8528 -1.645,1.1817 z m 1.495,-19.334 -10.342001,2.0487 -0.362,-1.6805 5.032001,-9.875 -6.864001,1.36 -0.477,-2.2146 10.342001,-2.0487 0.364,1.6927 -5.147001,9.8726 6.974001,-1.3818 z m -3.616,-15.5055 -11.144001,-5.0618 -0.25,-2.3908 9.868001,-7.1314 0.292,2.7882 -2.174001,1.5028 0.706001,6.7415 2.442,1.0686 z m -4.731001,-4.4277 -0.489,-4.6727 -4.131,2.7867 z m 2.918001,-12.6696 -10.563001,0.097 -0.04,-2.5183 8.586,-0.078 -0.114,-8.0282 1.977001,-0.018 z m -6.976001,-31.9325 -0.738,5.6552 2.9,0.3678 0.738,-5.6551 c 0.06,-0.4283 0.03,-0.733 -0.08,-0.9092 -0.106,-0.1763 -0.315,-0.284 -0.621,-0.3227 l -1.206,-0.1532 c -0.306,-0.039 -0.535,0.013 -0.684,0.1574 -0.149,0.144 -0.254,0.4313 -0.31,0.8598 z m 7.619001,9.1928 -10.481001,-1.329 1.194,-9.1455 c 0.109,-0.8366 0.35,-1.4244 0.716,-1.7561 0.368,-0.336 0.912,-0.4582 1.632,-0.3672 l 2.462,0.3126 c 0.71,0.09 1.198,0.3431 1.467,0.7598 0.265,0.4121 0.343,1.0403 0.234,1.8769 l -0.182,1.3927 4.601001,-4.3273 -0.465,3.5542 -4.525001,3.7546 -0.305,2.3336 3.970001,0.5036 z m 1.194,-17.9838 1.945,-8.0282 -6.425001,-1.489 -1.946,8.0286 z m -6.479001,1.0613 c -0.936,-0.2172 -1.53,-0.5414 -1.785,-0.9736 -0.255,-0.4324 -0.26,-1.1548 -0.01,-2.1753 l 1.868,-7.7062 c 0.249,-1.0284 0.585,-1.6761 1.011,-1.9468 0.425,-0.2701 1.104,-0.2952 2.04,-0.078 l 5.428001,1.2579 c 0.941,0.2181 1.538,0.5434 1.793,0.9797 0.253,0.436 0.258,1.1583 0.01,2.1709 l -1.868,7.7061 c -0.247,1.0211 -0.583,1.6643 -1.009,1.9389 -0.426,0.2742 -1.11,0.3026 -2.05,0.085 z m 12.711001,-15.1614 -9.849001,-3.7464 3.432001,-8.5616 c 0.321,-0.8003 0.704,-1.3174 1.142,-1.5533 0.441,-0.2391 0.997,-0.2312 1.672,0.026 l 1.185,0.4505 c 0.446,0.1697 0.759,0.449 0.935,0.836 0.178,0.393 0.207,0.8674 0.1,1.435 0.305,-0.5031 0.682,-0.8405 1.131,-1.012 0.449,-0.1712 0.924,-0.1632 1.425,0.027 l 1.262,0.48 c 0.644,0.2454 1.028,0.6728 1.153,1.2871 0.124,0.6146 -0.01,1.4169 -0.407,2.4085 z m -5.241,-10.6312 -2.088,5.2069 2.334,0.8874 2.087,-5.207 c 0.162,-0.4018 0.217,-0.6967 0.171,-0.883 -0.05,-0.1869 -0.198,-0.3313 -0.458,-0.4301 l -0.932,-0.3543 c -0.261,-0.099 -0.467,-0.095 -0.626,0.01 -0.162,0.1027 -0.324,0.3614 -0.488,0.7708 z m 3.96,1.5061 -2.088,5.207 2.512,0.9552 2.088,-5.2067 c 0.176,-0.4392 0.229,-0.7616 0.164,-0.968 -0.07,-0.2066 -0.258,-0.3707 -0.584,-0.495 l -0.753,-0.2863 c -0.327,-0.124 -0.587,-0.1326 -0.783,-0.025 -0.195,0.1071 -0.38,0.3794 -0.556,0.8186 z m 6.631,-8.5407 3.894,-7.3251 -5.87,-2.9502 -3.893,7.3251 z m -6.558,-0.4909 c -0.855,-0.4301 -1.35,-0.8835 -1.49,-1.3624 -0.14,-0.4785 0.04,-1.1802 0.531,-2.1112 l 3.737,-7.0313 c 0.499,-0.9381 0.988,-1.4869 1.469,-1.649 0.48,-0.1627 1.145,-0.028 2,0.4017 l 4.959,2.4924 c 0.859999,0.4319 1.358999,0.8873 1.496999,1.3694 0.138,0.4818 -0.04,1.1838 -0.529,2.1077 l -3.737999,7.0308 c -0.495,0.9316 -0.981,1.4763 -1.464,1.6424 -0.482,0.166 -1.153,0.033 -2.012,-0.3985 z m 12.086999,-21.3703 7.258,4.6355 -1.41,2.0811 -7.256999,-4.6355 -2.794,4.1254 -1.582,-1.0104 7.003999,-10.3417 1.582,1.0098 z m 12.173,-2.0469 -8.301,-6.3692 1.583,-1.9436 8.302,6.3689 z m 4.036,-17.7783 -4.573,5.0431 4.965,4.2353 4.573,-5.0429 -1.688,-1.44 2.106,-1.5509 0.937,0.799 c 0.721,0.6147 1.089,1.1758 1.103,1.6818 0.02,0.5018 -0.334,1.1468 -1.048,1.9335 l -4.347,4.7943 c -0.703,0.7747 -1.312,1.1885 -1.825,1.2396 -0.515,0.053 -1.136,-0.2291 -1.863,-0.8493 l -4.195,-3.5784 c -0.724,-0.6172 -1.092,-1.1728 -1.106,-1.6726 -0.01,-0.5001 0.332,-1.1386 1.04,-1.9194 l 4.348,-4.7949 c 0.719,-0.7922 1.334,-1.2126 1.847,-1.2628 0.513,-0.051 1.128,0.2323 1.851,0.8496 l 0.771,0.6574 -1.427,2.131 z m 13.041,-11.8944005 -5.507,4.5838 1.458,1.6443 5.211,-4.3374 c 0.82,-0.6816 1.483,-1.0148 1.989,-0.9945 0.51,0.018 1.082,0.3854 1.713,1.0969 l 0.949,1.0707 c 0.634,0.7147 0.919,1.3201 0.857,1.8193 -0.06,0.4962 -0.492,1.0819 -1.299,1.7535 l -5.193,4.3211005 c -0.826,0.6875 -1.498,1.0231 -2.02,1.0092 -0.522,-0.014 -1.096,-0.3779 -1.73,-1.0925 l -0.191,-0.2143 1.457,-1.762 0.813,0.9172 5.884,-4.8962005 -1.578,-1.7788 -5.183,4.3137005 c -0.817,0.6789 -1.486,1.012 -2.007,0.9931 -0.521,-0.021 -1.096,-0.3835 -1.725,-1.0916 l -0.772,-0.8714005 c -0.62,-0.6993 -0.902,-1.3018 -0.844,-1.8039 0.06,-0.5024 0.499,-1.0925 1.316,-1.7724 l 4.751,-3.9539 c 0.807,-0.6715 1.47,-1.00519997 1.99,-1.00569997 0.52,0 1.057,0.31439997 1.615,0.94379997 l 0.166,0.1869 -1.379,1.7561 z m 22.946002,-15.4338995 -6.760002,4.1926995 3.575002,5.3933 6.759,-4.193 -1.218,-1.8373 -3.528,2.1886 -1.017,-1.5344 5.65,-3.5045995 1.978,2.9843995 c 0.523,0.789 0.722,1.4249 0.593,1.9082 -0.13,0.4835 -0.644,1.0039 -1.547,1.5642 l -6.43,3.9884 c -0.904,0.56030003 -1.607,0.79530003 -2.115,0.70710003 -0.508,-0.088 -1.022,-0.52810003 -1.546002,-1.31750003 l -3.02,-4.5567 c -0.521,-0.7856 -0.717,-1.4178 -0.588,-1.901 0.129,-0.4836 0.643,-1.0043 1.547,-1.5645995 l 6.430002,-3.9884 c 0.897,-0.5562 1.598,-0.7941 2.102,-0.7126 0.507,0.079 1.004,0.4862 1.486,1.2141 l 0.154,0.2318 -1.891,1.6625 z m 14.425,-7.2173 -5.252,2.5485 1.318,2.5354 5.252,-2.549 c 0.397,-0.1928 0.642,-0.384 0.733,-0.5682 0.09,-0.1842 0.07,-0.4118 -0.07,-0.6787 l -0.548,-1.0545 c -0.139,-0.2671 -0.313,-0.4224 -0.52,-0.4622 -0.207,-0.039 -0.512,0.036 -0.909,0.2287 z m -3.574,11.2302995 -4.762,-9.1611995 8.493,-4.1216 c 0.777,-0.3766 1.415,-0.5104 1.906,-0.3996 0.494,0.1082 0.905,0.4785 1.231,1.107 l 1.119,2.152 c 0.323,0.6214 0.381,1.1536 0.176,1.6011 -0.203,0.4425 -0.697,0.854 -1.473,1.2307 l -1.294,0.6276 6.29,1.2932 -3.3,1.6018 -5.759,-1.5513 -2.167,1.0515 1.803,3.4702995 z m 16.101,-9.4401995 8.062,-2.6249 -2.125,-6.0654 -8.062,2.6246 z m -4.385,-4.7674 c -0.31,-0.8839 -0.343,-1.5425 -0.101,-1.9793 0.243,-0.4373 0.872,-0.8213 1.897,-1.1552 l 7.739,-2.5194 c 1.032,-0.3363 1.779,-0.4004 2.242,-0.1931 0.464,0.2076 0.848,0.7519 1.158,1.636 l 1.796,5.1241 c 0.311,0.888 0.346,1.5503 0.1,1.9884 -0.246,0.4384 -0.876,0.8224 -1.893,1.1536 l -7.738,2.5199 c -1.025,0.3339 -1.767,0.3961 -2.235,0.1901 -0.467,-0.2058 -0.857,-0.7528 -1.168,-1.6407 z m 20.137,-8.149 1.902,8.1248 7.175,-1.5487 -1.901,-8.125 2.534,-0.5467 1.785,7.6282 c 0.213,0.9101 0.171,1.569 -0.129,1.9858 -0.299,0.416 -0.974,0.7398 -2.03,0.9677 l -6.818,1.4716 c -1.047,0.2261 -1.793,0.213 -2.24,-0.038 -0.446,-0.2512 -0.775,-0.8345 -0.99,-1.7529 l -1.785,-7.6276 z m 16.612,7.1662 -1.249,-10.1737 9.448,-1.0508 c 0.873,-0.097 1.521,-0.012 1.943,0.2556 0.423,0.2659 0.675,0.75 0.76,1.4479 l 0.277,2.2497 c 0.09,0.6976 -0.05,1.2248 -0.398,1.5767 -0.346,0.3515 -0.955,0.578 -1.82,0.6739 l -6.93,0.7707 0.487,3.9701 z m 7.327,-9.3509 -5.842,0.6494 0.331,2.699 5.842,-0.65 c 0.443,-0.049 0.741,-0.1467 0.891,-0.2896 0.15,-0.143 0.207,-0.3649 0.17,-0.6613 l -0.129,-1.0545 c -0.04,-0.297 -0.145,-0.5004 -0.326,-0.6064 -0.181,-0.106 -0.494,-0.1361 -0.937,-0.087 z"
       style="fill:#ffffff;fill-rule:evenodd;stroke:#3b3b3b;stroke-width:0.64320433;stroke-linecap:butt;stroke-linejoin:miter;stroke-dasharray:none"
       id="path828"
       inkscape:connector-curvature="0" />
    <path
       d="m 155.29724,67.27391 -5.636,-3.5604 6.525,1.9318 z m 0.902,-1.6381 -0.625,-6.4657 2.501,6.1197 z m 1.892,-0.3418 4.857,-4.5024 -3.406,5.6997 z m 1.457,1.2118 6.682,0.8516 -6.749,0.9874 z m -0.07,1.8532 3.475,5.5642 -5.01,-4.4684 z m -1.551,1.0988 -2.348,6.0869 0.502,-6.5593 z m -1.859,-0.4827 -6.403,2.0259 5.636,-3.7109 z"
       style="fill:#ffffff;fill-rule:evenodd;stroke:#ffffff;stroke-width:0.64320433;stroke-linecap:butt;stroke-linejoin:miter;stroke-dasharray:none"
       id="path830"
       inkscape:connector-curvature="0" />
    <rect
       style="opacity:1;fill:#ffffff;fill-opacity:1;stroke:none;stroke-width:231.61274719;stroke-linejoin:round;stroke-miterlimit:4;stroke-dasharray:none;stroke-dashoffset:0;stroke-opacity:1"
       id="rect4581"
       width="3.6591859"
       height="3.8616178"
       x="-69.25499"
       y="155.35246"
       transform="rotate(-90)" />
  </g>
</svg>
