<?xml version="1.0" encoding="UTF-8" standalone="no"?>
<!-- Created with Inkscape (http://www.inkscape.org/) -->

<svg
   xmlns:dc="http://purl.org/dc/elements/1.1/"
   xmlns:cc="http://creativecommons.org/ns#"
   xmlns:rdf="http://www.w3.org/1999/02/22-rdf-syntax-ns#"
   xmlns:svg="http://www.w3.org/2000/svg"
   xmlns="http://www.w3.org/2000/svg"
   xmlns:sodipodi="http://sodipodi.sourceforge.net/DTD/sodipodi-0.dtd"
   xmlns:inkscape="http://www.inkscape.org/namespaces/inkscape"
   width="12in"
   height="12in"
   viewBox="0 0 304.8 304.80001"
   version="1.1"
   id="svg331"
   inkscape:version="0.92.2 (5c3e80d, 2017-08-06)"
   sodipodi:docname="Stain80.svg">
  <defs
     id="defs325">
    <pattern
       y="0"
       x="0"
       height="6"
       width="6"
       patternUnits="userSpaceOnUse"
       id="EMFhbasepattern" />
  </defs>
  <sodipodi:namedview
     id="base"
     pagecolor="#ffffff"
     bordercolor="#666666"
     borderopacity="1.0"
     inkscape:pageopacity="0.0"
     inkscape:pageshadow="2"
     inkscape:zoom="0.59912441"
     inkscape:cx="205.93301"
     inkscape:cy="467.0379"
     inkscape:document-units="mm"
     inkscape:current-layer="layer1"
     showgrid="false"
     units="in"
     inkscape:window-width="1858"
     inkscape:window-height="1058"
     inkscape:window-x="1912"
     inkscape:window-y="-8"
     inkscape:window-maximized="1" />
  <metadata
     id="metadata328">
    <rdf:RDF>
      <cc:Work
         rdf:about="">
        <dc:format>image/svg+xml</dc:format>
        <dc:type
           rdf:resource="http://purl.org/dc/dcmitype/StillImage" />
        <dc:title />
      </cc:Work>
    </rdf:RDF>
  </metadata>
  <g
     inkscape:label="Layer 1"
     inkscape:groupmode="layer"
     id="layer1"
     transform="translate(0,7.8000168)">
    <path
       style="fill:#333333;fill-opacity:1;fill-rule:nonzero;stroke:none;stroke-width:0.26458332"
       d="m 256.35652,31.676664 c -13.59797,-8.941989 -29.58872,-0.436894 -43.00759,4.395779 -14.00176,4.308861 -31.57875,8.245808 -37.46654,23.524997 -4.61867,16.316437 5.90836,31.477656 8.82002,47.04369 6.23805,13.7959 -0.61839,31.23421 -14.34464,37.43073 -16.51761,11.97739 -38.11694,13.16473 -57.59092,9.76414 -19.764354,-1.0795 -33.233282,15.60118 -48.597818,25.1879 -15.111304,4.04684 -17.142389,23.07155 -2.097075,28.87472 11.19081,5.58835 24.023331,7.17188 35.097868,13.25272 17.060055,8.4509 30.710825,22.55282 48.536535,29.7348 15.66471,7.6255 33.46856,7.98078 50.48582,6.96638 21.68721,-2.4977 39.94146,-16.35535 55.80136,-30.37767 18.59284,-16.83681 31.25467,-39.87906 36.26374,-64.39306 0.93802,-18.59239 -6.42064,-37.25418 -1.10553,-55.66956 3.67988,-22.044894 -0.66059,-44.399155 -6.6667,-65.566504 2.09237,-13.781881 -14.45339,-26.551195 -23.5786,-12.454544 z"
       id="path46"
       inkscape:connector-curvature="0" />
    <path
       id="path48"
       d="m 20.947232,253.74317 1.79914,-0.16933 c 0.0847,0.74083 0.29633,1.3335 0.59266,1.79916 0.3175,0.46567 0.8255,0.84664 1.48167,1.12181 0.65614,0.29633 1.39697,0.4445 2.22247,0.4445 0.74084,0 1.397,-0.127 1.94731,-0.33867 0.5715,-0.21166 0.97367,-0.508 1.24883,-0.88897 0.27517,-0.381 0.42334,-0.80433 0.42334,-1.24883 0,-0.46567 -0.127,-0.84667 -0.40217,-1.18533 -0.254,-0.35983 -0.6985,-0.635 -1.31233,-0.86783 -0.381,-0.14816 -1.24881,-0.381 -2.58231,-0.69849 -1.3335,-0.33867 -2.26481,-0.635 -2.81514,-0.93133 -0.67733,-0.35983 -1.2065,-0.80433 -1.54517,-1.33349 -0.33866,-0.55033 -0.508,-1.16416 -0.508,-1.82032 0,-0.74083 0.21167,-1.41816 0.61384,-2.05315 0.42333,-0.635 1.03716,-1.12183 1.8415,-1.46049 0.78316,-0.33866 1.67214,-0.48683 2.66697,-0.48683 1.0795,0 2.01081,0.16933 2.83631,0.508 0.8255,0.35983 1.4605,0.86782 1.905,1.54515 0.4445,0.65616 0.6773,1.43932 0.71964,2.28598 l -1.84148,0.127 c -0.10583,-0.91016 -0.4445,-1.60865 -1.016,-2.07431 -0.5715,-0.46567 -1.41814,-0.6985 -2.53997,-0.6985 -1.16417,0 -2.01081,0.21167 -2.53997,0.635 -0.52917,0.42333 -0.80434,0.93132 -0.80434,1.54515 0,0.52916 0.1905,0.95249 0.5715,1.29116 0.381,0.33866 1.33348,0.67733 2.89981,1.03716 1.56633,0.35983 2.64581,0.65616 3.21731,0.93132 0.84666,0.381 1.48166,0.86783 1.88383,1.48166 0.40214,0.59266 0.61381,1.29116 0.61381,2.05315 0,0.78317 -0.23284,1.50284 -0.67731,2.20131 -0.4445,0.67733 -1.0795,1.2065 -1.905,1.5875 -0.8255,0.381 -1.75681,0.5715 -2.79397,0.5715 -1.3335,0 -2.43414,-0.1905 -3.32314,-0.5715 -0.889,-0.381 -1.5875,-0.9525 -2.0955,-1.73567 -0.50798,-0.76197 -0.76198,-1.6298 -0.78314,-2.60347 z"
       style="fill:#000000;fill-opacity:1;fill-rule:nonzero;stroke:none;stroke-width:0.26458332"
       inkscape:connector-curvature="0" />
    <path
       id="path50"
       d="m 38.832932,256.81231 0.254,1.5875 c -0.48684,0.10583 -0.9525,0.14817 -1.3335,0.14817 -0.65617,0 -1.16417,-0.10584 -1.524,-0.3175 -0.33867,-0.1905 -0.59267,-0.46567 -0.74081,-0.78317 -0.14817,-0.33867 -0.23283,-1.05833 -0.23283,-2.11664 v -6.0748 h -1.29117 v -1.37582 h 1.29117 v -2.62465 l 1.77797,-1.05832 v 3.68297 h 1.79917 v 1.37582 h -1.79917 v 6.15947 c 0,0.50797 0.0423,0.84664 0.10583,0.9948 0.0635,0.14817 0.16934,0.254 0.29634,0.33867 0.14816,0.0847 0.35983,0.127 0.61383,0.127 0.21167,0 0.46567,-0.0212 0.78317,-0.0635 z"
       style="fill:#000000;fill-opacity:1;fill-rule:nonzero;stroke:none;stroke-width:0.26458332"
       inkscape:connector-curvature="0" />
    <path
       id="path52"
       d="m 47.447692,257.10864 c -0.65616,0.5715 -1.29116,0.9525 -1.90499,1.18534 -0.61383,0.23283 -1.26999,0.35983 -1.96849,0.35983 -1.16414,0 -2.05314,-0.29633 -2.66698,-0.84667 -0.635,-0.5715 -0.93133,-1.29116 -0.93133,-2.18014 0,-0.508 0.10583,-0.97366 0.33867,-1.397 0.23283,-0.4445 0.55033,-0.78316 0.93133,-1.03716 0.381,-0.254 0.80433,-0.46566 1.29117,-0.59266 0.33864,-0.0847 0.8678,-0.16933 1.58747,-0.254 1.43933,-0.1905 2.49765,-0.381 3.17498,-0.61383 0,-0.254 0.0212,-0.40216 0.0212,-0.48683 0,-0.71966 -0.16933,-1.22766 -0.508,-1.52399 -0.46566,-0.40216 -1.14299,-0.61382 -2.03198,-0.61382 -0.84667,0 -1.48167,0.14816 -1.88384,0.44449 -0.38097,0.29633 -0.6773,0.8255 -0.8678,1.56632 l -1.75684,-0.23283 c 0.16934,-0.76199 0.42334,-1.35465 0.78317,-1.82032 0.35983,-0.46566 0.889,-0.80433 1.5875,-1.05832 0.67731,-0.254 1.48164,-0.381 2.39181,-0.381 0.88899,0 1.62982,0.10583 2.18014,0.3175 0.5715,0.21166 0.97366,0.48683 1.24883,0.80433 0.254,0.31749 0.4445,0.71966 0.55033,1.22765 0.0635,0.29633 0.0847,0.84666 0.0847,1.62982 v 2.39182 c 0,1.651 0.0423,2.70931 0.127,3.15381 0.0635,0.4445 0.21167,0.84666 0.4445,1.24883 h -1.86265 c -0.1905,-0.35983 -0.29633,-0.80433 -0.35983,-1.29117 z m -0.14817,-3.9793 c -0.65616,0.254 -1.62982,0.48683 -2.92098,0.65616 -0.71967,0.10584 -1.24883,0.23284 -1.54517,0.35984 -0.31747,0.14816 -0.5503,0.33866 -0.71964,0.59266 -0.14816,0.254 -0.23283,0.52917 -0.23283,0.84667 0,0.46564 0.16933,0.86781 0.52917,1.18531 0.3598,0.3175 0.88897,0.48683 1.58747,0.48683 0.67733,0 1.29116,-0.14817 1.84149,-0.4445 0.52916,-0.3175 0.93133,-0.71967 1.16416,-1.24881 0.21166,-0.40216 0.29633,-0.99483 0.29633,-1.778 z"
       style="fill:#000000;fill-opacity:1;fill-rule:nonzero;stroke:none;stroke-width:0.26458332"
       inkscape:connector-curvature="0" />
    <path
       id="path54"
       d="m 51.892652,245.91156 v -2.05315 h 1.77799 v 2.05315 z m 0,12.48825 v -10.51976 h 1.77799 v 10.51976 z"
       style="fill:#000000;fill-opacity:1;fill-rule:nonzero;stroke:none;stroke-width:0.26458332"
       inkscape:connector-curvature="0" />
    <path
       id="path56"
       d="m 56.401122,258.39981 v -10.51976 h 1.60865 v 1.48165 c 0.78317,-1.14299 1.90499,-1.73565 3.36548,-1.73565 0.635,0 1.20649,0.127 1.73565,0.35983 0.55033,0.21166 0.93133,0.508 1.2065,0.889 0.25399,0.35983 0.44449,0.80432 0.55032,1.31232 0.0635,0.33866 0.10584,0.91016 0.10584,1.73565 v 6.47696 h -1.77799 v -6.39229 c 0,-0.74083 -0.0847,-1.26999 -0.21167,-1.62982 -0.14816,-0.35984 -0.40216,-0.65617 -0.74082,-0.86783 -0.35983,-0.21167 -0.78316,-0.3175 -1.24883,-0.3175 -0.76199,0 -1.41815,0.23283 -1.96848,0.71966 -0.55033,0.48683 -0.8255,1.39699 -0.8255,2.75165 v 5.73613 z"
       style="fill:#000000;fill-opacity:1;fill-rule:nonzero;stroke:none;stroke-width:0.26458332"
       inkscape:connector-curvature="0" />
    <path
       id="path58"
       d="m 26.450512,275.92568 c -0.74084,-0.27517 -1.29117,-0.65617 -1.65098,-1.16417 -0.33866,-0.508 -0.52916,-1.10064 -0.52916,-1.79914 0,-1.05833 0.381,-1.94733 1.14297,-2.667 0.762,-0.74081 1.778,-1.10064 3.02683,-1.10064 1.26998,0 2.30714,0.381 3.06914,1.12181 0.78314,0.74083 1.16414,1.62983 1.16414,2.68816 0,0.67734 -0.16933,1.26998 -0.52916,1.75681 -0.35981,0.508 -0.88898,0.889 -1.60864,1.16417 0.889,0.29633 1.5663,0.762 2.03197,1.39697 0.46567,0.65617 0.6985,1.43933 0.6985,2.32833 0,1.24881 -0.4445,2.28598 -1.31231,3.13264 -0.889,0.84667 -2.032,1.27 -3.47133,1.27 -1.43931,0 -2.60347,-0.42333 -3.47131,-1.27 -0.88897,-0.84666 -1.33347,-1.905 -1.33347,-3.17497 0,-0.9525 0.254,-1.73567 0.71967,-2.37064 0.4868,-0.65617 1.16414,-1.0795 2.05314,-1.31233 z m -0.35984,-3.02681 c 0,0.67733 0.23284,1.24881 0.67734,1.69331 0.4445,0.42333 1.016,0.635 1.71447,0.635 0.6985,0 1.24883,-0.21167 1.69333,-0.635 0.4445,-0.4445 0.65617,-0.97364 0.65617,-1.58748 0,-0.65616 -0.21167,-1.2065 -0.67733,-1.651 -0.4445,-0.46566 -1.016,-0.67733 -1.69334,-0.67733 -0.6773,0 -1.2488,0.21167 -1.6933,0.65617 -0.4445,0.42333 -0.67734,0.9525 -0.67734,1.56633 z m -0.5715,6.70978 c 0,0.508 0.127,1.016 0.35984,1.48164 0.254,0.48683 0.61383,0.84667 1.0795,1.12183 0.48683,0.254 0.99483,0.381 1.54514,0.381 0.84666,0 1.54516,-0.27516 2.11666,-0.8255 0.55034,-0.55033 0.8255,-1.2488 0.8255,-2.09547 0,-0.86783 -0.29633,-1.56633 -0.86783,-2.13783 -0.5715,-0.55031 -1.27,-0.84664 -2.13781,-0.84664 -0.84666,0 -1.54516,0.27516 -2.0955,0.84664 -0.55033,0.55033 -0.8255,1.24883 -0.8255,2.07433 z"
       style="fill:#000000;fill-opacity:1;fill-rule:nonzero;stroke:none;stroke-width:0.26458332"
       inkscape:connector-curvature="0" />
    <path
       id="path60"
       d="m 35.022952,276.64534 c 0,-1.73566 0.16934,-3.11147 0.52917,-4.14864 0.33864,-1.05833 0.86781,-1.86266 1.56631,-2.43414 0.6985,-0.5715 1.5875,-0.86783 2.6458,-0.86783 0.78317,0 1.4605,0.16933 2.05317,0.48683 0.59267,0.3175 1.07947,0.76198 1.46047,1.35464 0.381,0.59267 0.67734,1.31234 0.889,2.159 0.23284,0.84664 0.33867,1.98964 0.33867,3.45014 0,1.69331 -0.16933,3.06914 -0.52917,4.12748 -0.35983,1.03714 -0.86783,1.86264 -1.58747,2.43414 -0.67733,0.5715 -1.56633,0.84666 -2.62467,0.84666 -1.39697,0 -2.49764,-0.508 -3.30197,-1.50283 -0.97364,-1.2065 -1.43931,-3.17497 -1.43931,-5.90545 z m 1.82031,0 c 0,2.37064 0.29633,3.97931 0.84667,4.76245 0.55033,0.78317 1.24883,1.18533 2.0743,1.18533 0.8255,0 1.50284,-0.40216 2.05317,-1.18533 0.5715,-0.80431 0.84667,-2.39181 0.84667,-4.76245 0,-2.413 -0.27517,-4.00047 -0.84667,-4.78364 -0.55033,-0.78316 -1.24883,-1.18533 -2.07433,-1.18533 -0.82548,0 -1.48164,0.35983 -1.96848,1.05833 -0.61383,0.86784 -0.93133,2.51881 -0.93133,4.91064 z"
       style="fill:#000000;fill-opacity:1;fill-rule:nonzero;stroke:none;stroke-width:0.26458332"
       inkscape:connector-curvature="0" />
    <path
       id="path62"
       d="m 46.664532,272.7507 c 0,-1.03716 0.25399,-1.92616 0.78316,-2.6458 0.52916,-0.71967 1.29115,-1.0795 2.26481,-1.0795 0.93133,0 1.67216,0.3175 2.26482,0.97366 0.61383,0.65614 0.91016,1.60864 0.91016,2.85748 0,1.2488 -0.29633,2.18014 -0.91016,2.85747 -0.61383,0.65617 -1.35466,0.99483 -2.24365,0.99483 -0.86783,0 -1.60866,-0.33866 -2.20132,-0.99483 -0.57149,-0.65617 -0.86782,-1.62983 -0.86782,-2.96331 z m 3.11147,-2.49766 c -0.44449,0 -0.82549,0.1905 -1.12182,0.5715 -0.27517,0.381 -0.42333,1.0795 -0.42333,2.11666 0,0.93131 0.14816,1.58748 0.44449,1.96848 0.29634,0.381 0.65617,0.5715 1.10066,0.5715 0.4445,0 0.8255,-0.1905 1.10066,-0.5715 0.29633,-0.40217 0.4445,-1.10067 0.4445,-2.11664 0,-0.93134 -0.14817,-1.5875 -0.4445,-1.9685 -0.29633,-0.381 -0.65616,-0.5715 -1.10066,-0.5715 z m 0,14.09692 7.95861,-15.32456 h 1.46049 l -7.93744,15.32456 z m 6.28646,-3.95814 c 0,-1.03717 0.27516,-1.92617 0.78316,-2.64584 0.52916,-0.71964 1.29115,-1.10064 2.28598,-1.10064 0.91016,0 1.67215,0.33867 2.26482,0.99481 0.61383,0.65617 0.91016,1.60867 0.91016,2.8575 0,1.22764 -0.3175,2.18014 -0.91016,2.85747 -0.61383,0.65617 -1.35466,0.99484 -2.24365,0.99484 -0.889,0 -1.62982,-0.33867 -2.20132,-0.99484 -0.59266,-0.65616 -0.88899,-1.651 -0.88899,-2.9633 z m 3.13264,-2.49767 c -0.46566,0 -0.8255,0.1905 -1.12183,0.5715 -0.29633,0.381 -0.44449,1.0795 -0.44449,2.11667 0,0.91014 0.14816,1.5663 0.44449,1.9473 0.29633,0.40217 0.67733,0.59267 1.10066,0.59267 0.46567,0 0.8255,-0.1905 1.12183,-0.59267 0.29633,-0.381 0.4445,-1.0795 0.4445,-2.09547 0,-0.93133 -0.14817,-1.5875 -0.4445,-1.9685 -0.29633,-0.381 -0.65616,-0.5715 -1.10066,-0.5715 z"
       style="fill:#000000;fill-opacity:1;fill-rule:nonzero;stroke:none;stroke-width:0.26458332"
       inkscape:connector-curvature="0" />
  </g>
</svg>
