<?xml version="1.0" encoding="UTF-8" standalone="no"?>
<!-- Created with Inkscape (http://www.inkscape.org/) -->

<svg
   xmlns:dc="http://purl.org/dc/elements/1.1/"
   xmlns:cc="http://creativecommons.org/ns#"
   xmlns:rdf="http://www.w3.org/1999/02/22-rdf-syntax-ns#"
   xmlns:svg="http://www.w3.org/2000/svg"
   xmlns="http://www.w3.org/2000/svg"
   xmlns:sodipodi="http://sodipodi.sourceforge.net/DTD/sodipodi-0.dtd"
   xmlns:inkscape="http://www.inkscape.org/namespaces/inkscape"
   width="12in"
   height="12in"
   viewBox="0 0 304.8 304.80001"
   version="1.1"
   id="svg331"
   inkscape:version="0.92.2 (5c3e80d, 2017-08-06)"
   sodipodi:docname="Stain60.svg">
  <defs
     id="defs325" />
  <sodipodi:namedview
     id="base"
     pagecolor="#ffffff"
     bordercolor="#666666"
     borderopacity="1.0"
     inkscape:pageopacity="0.0"
     inkscape:pageshadow="2"
     inkscape:zoom="0.72084391"
     inkscape:cx="198.01242"
     inkscape:cy="570.12634"
     inkscape:document-units="mm"
     inkscape:current-layer="layer1"
     showgrid="false"
     units="in"
     inkscape:window-width="1858"
     inkscape:window-height="1058"
     inkscape:window-x="1912"
     inkscape:window-y="-8"
     inkscape:window-maximized="1" />
  <metadata
     id="metadata328">
    <rdf:RDF>
      <cc:Work
         rdf:about="">
        <dc:format>image/svg+xml</dc:format>
        <dc:type
           rdf:resource="http://purl.org/dc/dcmitype/StillImage" />
        <dc:title />
      </cc:Work>
    </rdf:RDF>
  </metadata>
  <g
     inkscape:label="Layer 1"
     inkscape:groupmode="layer"
     id="layer1"
     transform="translate(0,7.8000168)">
    <path
       style="fill:#666666;stroke:none;stroke-width:0.28222224px;stroke-linecap:butt;stroke-linejoin:miter;stroke-opacity:1"
       d="m 94.223715,144.63212 c -9.240325,-5.8191 -3.95851,-19.14477 -3.61182,-28.93558 0.33572,-11.31368 11.754245,-23.386411 21.966265,-12.80034 9.46924,7.65065 19.07554,15.39748 26.129,25.45847 14.0128,17.89853 34.34612,29.22368 53.64177,40.5261 11.57514,6.3791 24.34946,10.61934 37.57329,11.57937 11.97491,3.17239 19.44941,14.12304 24.34658,24.76476 7.35388,7.30082 10.71573,16.89232 8.75593,27.19991 -2.06586,8.70734 -6.33493,16.74591 -11.9369,23.78365 -9.55573,5.25277 -13.60878,18.36044 -23.23884,22.3918 -11.29015,-0.79301 -17.15878,-12.4283 -26.85749,-16.77796 -10.83684,-4.84593 -19.99786,-14.59257 -32.47627,-14.87573 -12.42941,-1.64965 -24.48393,-9.83556 -27.82832,-22.37693 -5.13689,-12.95676 -14.89173,-24.71495 -27.65873,-30.65614 -8.21663,-4.1983 -15.317745,-11.45484 -19.663615,-19.48378 -2.63778,-9.86208 1.71562,-19.82072 0.85915,-29.7976 0.60458,-2.83064 -1.966766,-0.40813 0,0 z"
       id="path8031-0-4"
       inkscape:connector-curvature="0"
       sodipodi:nodetypes="ccccccccccccccccc" />
    <path
       inkscape:connector-curvature="0"
       id="path297"
       style="font-style:normal;font-variant:normal;font-weight:normal;font-stretch:normal;font-size:20.3200016px;line-height:1.25;font-family:Arial;-inkscape-font-specification:Arial;text-align:center;letter-spacing:0px;word-spacing:0px;text-anchor:middle;fill:#000000;fill-opacity:1;stroke:none;stroke-width:0.28222224"
       d="m 18.322832,253.9828 1.8157,-0.15875 q 0.12898,1.0914 0.59531,1.79586 0.47625,0.69453 1.46844,1.13109 0.99219,0.42664 2.23242,0.42664 1.10133,0 1.94469,-0.32742 0.84336,-0.32742 1.25015,-0.89297 0.41672,-0.57547 0.41672,-1.25016 0,-0.68461 -0.39687,-1.19062 -0.39688,-0.51594 -1.30969,-0.86321 -0.58539,-0.2282 -2.58961,-0.70445 -2.00422,-0.48617 -2.80789,-0.91281 -1.0418,-0.5457 -1.55773,-1.34938 -0.50602,-0.81359 -0.50602,-1.8157 0,-1.10133 0.62508,-2.05383 0.62508,-0.96242 1.82562,-1.45851 1.20055,-0.4961 2.66899,-0.4961 1.61726,0 2.84758,0.52586 1.24023,0.51594 1.905,1.52797 0.66476,1.01203 0.71437,2.29195 l -1.84547,0.13891 q -0.14883,-1.37914 -1.01203,-2.08359 -0.85328,-0.70446 -2.53008,-0.70446 -1.74625,0 -2.54992,0.64493 -0.79375,0.635 -0.79375,1.53789 0,0.78382 0.56555,1.28984 0.55562,0.50602 2.89719,1.0418 2.35148,0.52586 3.22461,0.92273 1.27,0.58539 1.87523,1.48828 0.60523,0.89297 0.60523,2.06375 0,1.16086 -0.66476,2.19274 -0.66477,1.02195 -1.91492,1.59742 -1.24024,0.56555 -2.79797,0.56555 -1.97446,0 -3.31391,-0.57547 -1.32953,-0.57547 -2.09351,-1.72641 -0.75407,-1.16086 -0.79375,-2.61937 z" />
    <path
       inkscape:connector-curvature="0"
       id="path299"
       style="font-style:normal;font-variant:normal;font-weight:normal;font-stretch:normal;font-size:20.3200016px;line-height:1.25;font-family:Arial;-inkscape-font-specification:Arial;text-align:center;letter-spacing:0px;word-spacing:0px;text-anchor:middle;fill:#000000;fill-opacity:1;stroke:none;stroke-width:0.28222224"
       d="m 36.221892,257.05858 0.25797,1.57758 q -0.75406,0.15875 -1.34938,0.15875 -0.97234,0 -1.50812,-0.30758 -0.53578,-0.30758 -0.75407,-0.80367 -0.21828,-0.50602 -0.21828,-2.11336 v -6.06227 h -1.30968 v -1.38906 h 1.30968 v -2.60946 l 1.77602,-1.07156 v 3.68102 h 1.79586 v 1.38906 h -1.79586 v 6.16149 q 0,0.76398 0.0893,0.98226 0.0992,0.21828 0.30758,0.34727 0.21828,0.12898 0.61515,0.12898 0.29766,0 0.78383,-0.0694 z" />
    <path
       inkscape:connector-curvature="0"
       id="path301"
       style="font-style:normal;font-variant:normal;font-weight:normal;font-stretch:normal;font-size:20.3200016px;line-height:1.25;font-family:Arial;-inkscape-font-specification:Arial;text-align:center;letter-spacing:0px;word-spacing:0px;text-anchor:middle;fill:#000000;fill-opacity:1;stroke:none;stroke-width:0.28222224"
       d="m 44.834082,257.35623 q -0.99219,0.84336 -1.91492,1.19063 -0.91282,0.34726 -1.96453,0.34726 -1.73633,0 -2.66899,-0.84335 -0.93266,-0.85329 -0.93266,-2.1729 0,-0.7739 0.34727,-1.4089 0.35719,-0.64492 0.92273,-1.03188 0.57547,-0.38695 1.28985,-0.58539 0.52586,-0.1389 1.5875,-0.26789 2.16297,-0.25797 3.18492,-0.61515 0.01,-0.36711 0.01,-0.46633 0,-1.09141 -0.50602,-1.53789 -0.6846,-0.60524 -2.03398,-0.60524 -1.26008,0 -1.86531,0.44649 -0.59532,0.43656 -0.88305,1.55773 l -1.74625,-0.23812 q 0.23812,-1.12118 0.78383,-1.80579 0.5457,-0.69453 1.57758,-1.06164 1.03187,-0.37703 2.39117,-0.37703 1.34937,0 2.19273,0.3175 0.84336,0.3175 1.24024,0.80367 0.39687,0.47625 0.55562,1.21047 0.0893,0.45641 0.0893,1.64703 v 2.38126 q 0,2.49039 0.10914,3.15515 0.11907,0.65485 0.45641,1.26008 h -1.86531 q -0.27782,-0.55563 -0.35719,-1.29977 z m -0.14883,-3.98859 q -0.97234,0.39687 -2.91703,0.67469 -1.10133,0.15875 -1.55774,0.35719 -0.4564,0.19843 -0.70445,0.58539 -0.24805,0.37703 -0.24805,0.84336 0,0.71437 0.53579,1.19062 0.5457,0.47625 1.58749,0.47625 1.03188,0 1.83555,-0.44648 0.80367,-0.45641 1.18071,-1.24024 0.28773,-0.60523 0.28773,-1.78594 z" />
    <path
       inkscape:connector-curvature="0"
       id="path303"
       style="font-style:normal;font-variant:normal;font-weight:normal;font-stretch:normal;font-size:20.3200016px;line-height:1.25;font-family:Arial;-inkscape-font-specification:Arial;text-align:center;letter-spacing:0px;word-spacing:0px;text-anchor:middle;fill:#000000;fill-opacity:1;stroke:none;stroke-width:0.28222224"
       d="m 49.279082,246.16436 v -2.05383 h 1.78594 v 2.05383 z m 0,12.49164 v -10.53703 h 1.78594 V 258.656 Z" />
    <path
       inkscape:connector-curvature="0"
       id="path305"
       style="font-style:normal;font-variant:normal;font-weight:normal;font-stretch:normal;font-size:20.3200016px;line-height:1.25;font-family:Arial;-inkscape-font-specification:Arial;text-align:center;letter-spacing:0px;word-spacing:0px;text-anchor:middle;fill:#000000;fill-opacity:1;stroke:none;stroke-width:0.28222224"
       d="m 53.793532,258.656 v -10.53703 h 1.60735 v 1.4982 q 1.16086,-1.73633 3.35359,-1.73633 0.9525,0 1.74625,0.34727 0.80367,0.33734 1.20055,0.89297 0.39687,0.55562 0.55562,1.31961 0.0992,0.49609 0.0992,1.73632 v 6.47899 h -1.78593 v -6.40953 q 0,-1.09141 -0.20836,-1.62719 -0.20836,-0.5457 -0.74414,-0.8632 -0.52586,-0.32742 -1.24024,-0.32742 -1.14101,0 -1.97445,0.72429 -0.82352,0.7243 -0.82352,2.74836 v 5.75469 z" />
    <path
       inkscape:connector-curvature="0"
       id="path307"
       style="font-style:normal;font-variant:normal;font-weight:normal;font-stretch:normal;font-size:20.3200016px;line-height:1.25;font-family:Arial;-inkscape-font-specification:Arial;text-align:center;letter-spacing:0px;word-spacing:0px;text-anchor:middle;fill:#000000;fill-opacity:1;stroke:none;stroke-width:0.28222224"
       d="m 30.358062,273.07249 -1.77602,0.1389 q -0.23812,-1.05172 -0.67468,-1.52797 -0.7243,-0.76398 -1.78594,-0.76398 -0.85328,0 -1.4982,0.47625 -0.84336,0.61515 -1.32953,1.79586 -0.48618,1.1807 -0.50602,3.36351 0.64492,-0.98226 1.57758,-1.45851 0.93265,-0.47625 1.95461,-0.47625 1.78594,0 3.03609,1.31961 1.26008,1.30968 1.26008,3.39328 0,1.36922 -0.59531,2.54992 -0.58539,1.17078 -1.61727,1.79586 -1.03187,0.62508 -2.34156,0.62508 -2.23242,0 -3.64133,-1.63711 -1.40891,-1.64703 -1.40891,-5.41735 0,-4.21679 1.55774,-6.13171 1.3593,-1.66688 3.66117,-1.66688 1.71649,0 2.80789,0.96242 1.10133,0.96242 1.31961,2.65907 z m -7.29258,6.27062 q 0,0.92274 0.38696,1.76609 0.39687,0.84336 1.10132,1.28985 0.70446,0.43656 1.47836,0.43656 1.1311,0 1.94469,-0.91281 0.81359,-0.91281 0.81359,-2.48047 0,-1.50813 -0.80367,-2.37133 -0.80367,-0.87312 -2.02406,-0.87312 -1.21047,0 -2.05383,0.87312 -0.84336,0.8632 -0.84336,2.27211 z" />
    <path
       inkscape:connector-curvature="0"
       id="path309"
       style="font-style:normal;font-variant:normal;font-weight:normal;font-stretch:normal;font-size:20.3200016px;line-height:1.25;font-family:Arial;-inkscape-font-specification:Arial;text-align:center;letter-spacing:0px;word-spacing:0px;text-anchor:middle;fill:#000000;fill-opacity:1;stroke:none;stroke-width:0.28222224"
       d="m 32.401972,276.88249 q 0,-2.57969 0.52586,-4.14735 0.53578,-1.57758 1.57758,-2.43086 1.05171,-0.85328 2.63921,-0.85328 1.17079,0 2.05383,0.47625 0.88305,0.46633 1.45852,1.3593 0.57547,0.88304 0.90289,2.16297 0.32742,1.27 0.32742,3.43297 0,2.55984 -0.52586,4.13742 -0.52586,1.56765 -1.57758,2.43086 -1.04179,0.85328 -2.63921,0.85328 -2.10344,0 -3.30399,-1.50813 -1.43867,-1.8157 -1.43867,-5.91343 z m 1.83555,0 q 0,3.58179 0.83343,4.77242 0.84336,1.1807 2.07368,1.1807 1.23031,0 2.06374,-1.19062 0.84336,-1.19063 0.84336,-4.7625 0,-3.59172 -0.84336,-4.77243 -0.83343,-1.1807 -2.08359,-1.1807 -1.23031,0 -1.96453,1.0418 -0.92273,1.32953 -0.92273,4.91133 z" />
    <path
       inkscape:connector-curvature="0"
       id="path311"
       style="font-style:normal;font-variant:normal;font-weight:normal;font-stretch:normal;font-size:20.3200016px;line-height:1.25;font-family:Arial;-inkscape-font-specification:Arial;text-align:center;letter-spacing:0px;word-spacing:0px;text-anchor:middle;fill:#000000;fill-opacity:1;stroke:none;stroke-width:0.28222224"
       d="m 44.050252,273.00303 q 0,-1.55773 0.78383,-2.64914 0.78383,-1.09141 2.27211,-1.09141 1.36922,0 2.26219,0.98227 0.90289,0.97234 0.90289,2.86742 0,1.84547 -0.91282,2.84758 -0.90289,0.99219 -2.23242,0.99219 -1.31961,0 -2.20265,-0.98227 -0.87313,-0.98226 -0.87313,-2.96664 z m 3.10555,-2.51023 q -0.66477,0 -1.11125,0.57547 -0.43657,0.57547 -0.43657,2.11336 0,1.39898 0.44649,1.97445 0.44648,0.56555 1.10133,0.56555 0.67469,0 1.11125,-0.57547 0.44648,-0.57547 0.44648,-2.10344 0,-1.40891 -0.44648,-1.97445 -0.44649,-0.57547 -1.11125,-0.57547 z m 0.01,14.09898 7.95734,-15.3293 h 1.4486 l -7.92758,15.3293 z m 6.29047,-3.9489 q 0,-1.56766 0.78383,-2.64914 0.78382,-1.09141 2.28203,-1.09141 1.36922,0 2.26218,0.98227 0.9029,0.97234 0.9029,2.86742 0,1.84547 -0.91282,2.84758 -0.90289,0.99218 -2.24234,0.99218 -1.31961,0 -2.20266,-0.98226 -0.87312,-0.99219 -0.87312,-2.96664 z m 3.11547,-2.51024 q -0.67469,0 -1.12118,0.57547 -0.43656,0.57547 -0.43656,2.11336 0,1.38906 0.44649,1.96453 0.44648,0.57547 1.10132,0.57547 0.68461,0 1.12118,-0.57547 0.44648,-0.57547 0.44648,-2.10344 0,-1.4089 -0.44648,-1.97445 -0.44649,-0.57547 -1.11125,-0.57547 z" />
  </g>
</svg>
