<?xml version="1.0" encoding="UTF-8" standalone="no"?>
<!-- Created with Inkscape (http://www.inkscape.org/) -->

<svg
   xmlns:dc="http://purl.org/dc/elements/1.1/"
   xmlns:cc="http://creativecommons.org/ns#"
   xmlns:rdf="http://www.w3.org/1999/02/22-rdf-syntax-ns#"
   xmlns:svg="http://www.w3.org/2000/svg"
   xmlns="http://www.w3.org/2000/svg"
   xmlns:sodipodi="http://sodipodi.sourceforge.net/DTD/sodipodi-0.dtd"
   xmlns:inkscape="http://www.inkscape.org/namespaces/inkscape"
   width="12in"
   height="12in"
   viewBox="0 0 304.8 304.80001"
   version="1.1"
   id="svg331"
   inkscape:version="0.92.2 (5c3e80d, 2017-08-06)"
   sodipodi:docname="Stain40.svg">
  <defs
     id="defs325" />
  <sodipodi:namedview
     id="base"
     pagecolor="#ffffff"
     bordercolor="#666666"
     borderopacity="1.0"
     inkscape:pageopacity="0.0"
     inkscape:pageshadow="2"
     inkscape:zoom="0.35830183"
     inkscape:cx="526.81087"
     inkscape:cy="137.05051"
     inkscape:document-units="mm"
     inkscape:current-layer="layer1"
     showgrid="false"
     units="in"
     inkscape:window-width="1858"
     inkscape:window-height="1058"
     inkscape:window-x="1912"
     inkscape:window-y="-8"
     inkscape:window-maximized="1" />
  <metadata
     id="metadata328">
    <rdf:RDF>
      <cc:Work
         rdf:about="">
        <dc:format>image/svg+xml</dc:format>
        <dc:type
           rdf:resource="http://purl.org/dc/dcmitype/StillImage" />
        <dc:title />
      </cc:Work>
    </rdf:RDF>
  </metadata>
  <g
     inkscape:label="Layer 1"
     inkscape:groupmode="layer"
     id="layer1"
     transform="translate(0,7.8000168)">
    <path
       style="fill:#999999;stroke:none;stroke-width:0.28222224px;stroke-linecap:butt;stroke-linejoin:miter;stroke-opacity:1"
       d="m 232.03899,126.59917 c 0.22732,7.34192 5.21195,-5.87465 7.2522,-7.77905 2.96619,-12.1996 15.43494,-17.60722 20.20883,-28.763551 6.1551,-14.524861 -0.89073,-30.620074 -10.10762,-42.156456 -5.42781,-8.324561 -12.70316,-15.847347 -22.79956,-18.096802 -8.61699,-2.063693 -17.22692,-4.831931 -26.04985,-5.599697 -14.50368,1.141998 -23.76132,13.970771 -36.67169,19.149922 -8.99799,4.275761 -17.43892,10.072686 -23.42742,18.050065 -11.31559,8.587396 -14.10262,23.423328 -15.65751,36.659012 -4.37363,14.653537 -6.70114,29.911987 -6.26032,45.203347 -2.85162,13.46629 -15.21451,21.7691 -23.344261,32.03413 -9.117913,10.80172 -18.640216,20.7607 -27.878262,31.20781 -6.557979,10.01842 2.591157,19.99283 9.399154,26.74667 12.797869,9.43818 29.725789,8.79893 43.981739,14.89095 13.73116,5.11589 30.05663,5.18594 42.06314,-4.15135 8.78396,-4.9693 18.0636,-10.30786 22.59536,-19.83057 5.40107,-10.11575 8.89111,-21.31083 16.67393,-30.02211 7.19011,-8.56614 12.46736,-18.44879 15.73249,-29.11693 4.68942,-12.14117 9.05034,-24.71855 15.93216,-35.72718 -0.39551,-1.01617 -1.75678,-1.45247 -1.64251,-2.69821 z"
       id="path7994-8"
       inkscape:connector-curvature="0" />
    <path
       inkscape:connector-curvature="0"
       id="path48"
       style="font-style:normal;font-variant:normal;font-weight:normal;font-stretch:normal;font-size:20.3200016px;line-height:1.25;font-family:Arial;-inkscape-font-specification:Arial;text-align:center;letter-spacing:0px;word-spacing:0px;text-anchor:middle;fill:#000000;fill-opacity:1;stroke:none;stroke-width:0.28222224"
       d="m 243.65673,252.63276 1.8157,-0.15875 q 0.12898,1.0914 0.59531,1.79585 0.47625,0.69454 1.46844,1.1311 0.99219,0.42664 2.23242,0.42664 1.10133,0 1.94469,-0.32742 0.84336,-0.32742 1.25016,-0.89297 0.41671,-0.57547 0.41671,-1.25016 0,-0.68461 -0.39687,-1.19062 -0.39688,-0.51594 -1.30969,-0.86321 -0.58539,-0.2282 -2.58961,-0.70445 -2.00422,-0.48617 -2.80789,-0.91281 -1.0418,-0.54571 -1.55773,-1.34938 -0.50602,-0.81359 -0.50602,-1.8157 0,-1.10133 0.62508,-2.05383 0.62508,-0.96242 1.82563,-1.45851 1.20054,-0.4961 2.66898,-0.4961 1.61726,0 2.84758,0.52586 1.24023,0.51594 1.905,1.52797 0.66476,1.01203 0.71437,2.29195 l -1.84547,0.13891 q -0.14882,-1.37914 -1.01203,-2.08359 -0.85328,-0.70446 -2.53008,-0.70446 -1.74625,0 -2.54992,0.64492 -0.79375,0.635 -0.79375,1.5379 0,0.78382 0.56555,1.28984 0.55562,0.50601 2.89719,1.0418 2.35148,0.52586 3.22461,0.92273 1.27,0.58539 1.87523,1.48828 0.60523,0.89297 0.60523,2.06375 0,1.16086 -0.66476,2.19274 -0.66477,1.02195 -1.91492,1.59742 -1.24024,0.56555 -2.79797,0.56555 -1.97446,0 -3.31391,-0.57547 -1.32953,-0.57547 -2.09351,-1.72641 -0.75407,-1.16086 -0.79375,-2.61937 z" />
    <path
       inkscape:connector-curvature="0"
       id="path50"
       style="font-style:normal;font-variant:normal;font-weight:normal;font-stretch:normal;font-size:20.3200016px;line-height:1.25;font-family:Arial;-inkscape-font-specification:Arial;text-align:center;letter-spacing:0px;word-spacing:0px;text-anchor:middle;fill:#000000;fill-opacity:1;stroke:none;stroke-width:0.28222224"
       d="m 261.55579,255.70854 0.25797,1.57757 q -0.75406,0.15876 -1.34938,0.15876 -0.97234,0 -1.50812,-0.30758 -0.53578,-0.30758 -0.75406,-0.80368 -0.21829,-0.50601 -0.21829,-2.11335 v -6.06227 h -1.30968 v -1.38906 h 1.30968 v -2.60946 l 1.77602,-1.07156 v 3.68102 h 1.79586 v 1.38906 h -1.79586 v 6.16148 q 0,0.76399 0.0893,0.98227 0.0992,0.21828 0.30758,0.34727 0.21828,0.12898 0.61515,0.12898 0.29766,0 0.78383,-0.0694 z" />
    <path
       inkscape:connector-curvature="0"
       id="path52"
       style="font-style:normal;font-variant:normal;font-weight:normal;font-stretch:normal;font-size:20.3200016px;line-height:1.25;font-family:Arial;-inkscape-font-specification:Arial;text-align:center;letter-spacing:0px;word-spacing:0px;text-anchor:middle;fill:#000000;fill-opacity:1;stroke:none;stroke-width:0.28222224"
       d="m 270.16798,256.00619 q -0.99219,0.84336 -1.91492,1.19063 -0.91282,0.34726 -1.96453,0.34726 -1.73633,0 -2.66899,-0.84336 -0.93266,-0.85328 -0.93266,-2.17289 0,-0.7739 0.34727,-1.4089 0.35719,-0.64492 0.92273,-1.03188 0.57547,-0.38695 1.28985,-0.58539 0.52586,-0.1389 1.5875,-0.26789 2.16297,-0.25797 3.18492,-0.61516 0.01,-0.3671 0.01,-0.46632 0,-1.09141 -0.50601,-1.53789 -0.68462,-0.60524 -2.03399,-0.60524 -1.26008,0 -1.86531,0.44649 -0.59532,0.43656 -0.88305,1.55773 l -1.74625,-0.23812 q 0.23812,-1.12118 0.78383,-1.80579 0.5457,-0.69453 1.57758,-1.06164 1.03187,-0.37703 2.39117,-0.37703 1.34937,0 2.19273,0.3175 0.84336,0.3175 1.24024,0.80367 0.39687,0.47625 0.55562,1.21047 0.0893,0.45641 0.0893,1.64703 v 2.38125 q 0,2.49039 0.10914,3.15516 0.11907,0.65484 0.45641,1.26008 h -1.86531 q -0.27782,-0.55563 -0.35719,-1.29977 z m -0.14883,-3.98859 q -0.97234,0.39687 -2.91703,0.67469 -1.10133,0.15875 -1.55774,0.35718 -0.4564,0.19844 -0.70445,0.58539 -0.24805,0.37704 -0.24805,0.84336 0,0.71438 0.53579,1.19063 0.5457,0.47625 1.5875,0.47625 1.03187,0 1.83554,-0.44649 0.80367,-0.4564 1.18071,-1.24023 0.28773,-0.60523 0.28773,-1.78594 z" />
    <path
       inkscape:connector-curvature="0"
       id="path54"
       style="font-style:normal;font-variant:normal;font-weight:normal;font-stretch:normal;font-size:20.3200016px;line-height:1.25;font-family:Arial;-inkscape-font-specification:Arial;text-align:center;letter-spacing:0px;word-spacing:0px;text-anchor:middle;fill:#000000;fill-opacity:1;stroke:none;stroke-width:0.28222224"
       d="m 274.61298,244.81432 v -2.05383 h 1.78594 v 2.05383 z m 0,12.49164 v -10.53703 h 1.78594 v 10.53703 z" />
    <path
       inkscape:connector-curvature="0"
       id="path56"
       style="font-style:normal;font-variant:normal;font-weight:normal;font-stretch:normal;font-size:20.3200016px;line-height:1.25;font-family:Arial;-inkscape-font-specification:Arial;text-align:center;letter-spacing:0px;word-spacing:0px;text-anchor:middle;fill:#000000;fill-opacity:1;stroke:none;stroke-width:0.28222224"
       d="m 279.12743,257.30596 v -10.53703 h 1.60735 v 1.4982 q 1.16086,-1.73633 3.35359,-1.73633 0.9525,0 1.74625,0.34727 0.80367,0.33734 1.20055,0.89297 0.39687,0.55562 0.55562,1.31961 0.0992,0.49609 0.0992,1.73632 v 6.47899 h -1.78593 v -6.40953 q 0,-1.09141 -0.20836,-1.62719 -0.20836,-0.5457 -0.74414,-0.8632 -0.52586,-0.32743 -1.24024,-0.32743 -1.14101,0 -1.97445,0.7243 -0.82352,0.7243 -0.82352,2.74836 v 5.75469 z" />
    <path
       inkscape:connector-curvature="0"
       id="path58"
       style="font-style:normal;font-variant:normal;font-weight:normal;font-stretch:normal;font-size:20.3200016px;line-height:1.25;font-family:Arial;-inkscape-font-specification:Arial;text-align:center;letter-spacing:0px;word-spacing:0px;text-anchor:middle;fill:#000000;fill-opacity:1;stroke:none;stroke-width:0.28222224"
       d="m 252.14985,282.70596 v -3.48258 h -6.31031 v -1.63711 l 6.63773,-9.42578 h 1.45852 v 9.42578 h 1.96453 v 1.63711 h -1.96453 v 3.48258 z m 0,-5.11969 v -6.55836 l -4.55414,6.55836 z" />
    <path
       inkscape:connector-curvature="0"
       id="path60"
       style="font-style:normal;font-variant:normal;font-weight:normal;font-stretch:normal;font-size:20.3200016px;line-height:1.25;font-family:Arial;-inkscape-font-specification:Arial;text-align:center;letter-spacing:0px;word-spacing:0px;text-anchor:middle;fill:#000000;fill-opacity:1;stroke:none;stroke-width:0.28222224"
       d="m 257.73587,275.53244 q 0,-2.57968 0.52586,-4.14734 0.53578,-1.57758 1.57758,-2.43086 1.05171,-0.85328 2.63922,-0.85328 1.17078,0 2.05382,0.47625 0.88305,0.46633 1.45852,1.3593 0.57547,0.88304 0.90289,2.16297 0.32742,1.27 0.32742,3.43296 0,2.55985 -0.52586,4.13743 -0.52586,1.56765 -1.57758,2.43086 -1.04179,0.85328 -2.63921,0.85328 -2.10344,0 -3.30399,-1.50813 -1.43867,-1.8157 -1.43867,-5.91344 z m 1.83554,0 q 0,3.5818 0.83344,4.77243 0.84336,1.1807 2.07368,1.1807 1.23031,0 2.06374,-1.19063 0.84336,-1.19062 0.84336,-4.7625 0,-3.59171 -0.84336,-4.77242 -0.83343,-1.1807 -2.08359,-1.1807 -1.23031,0 -1.96453,1.0418 -0.92274,1.32953 -0.92274,4.91132 z" />
    <path
       inkscape:connector-curvature="0"
       id="path62"
       style="font-style:normal;font-variant:normal;font-weight:normal;font-stretch:normal;font-size:20.3200016px;line-height:1.25;font-family:Arial;-inkscape-font-specification:Arial;text-align:center;letter-spacing:0px;word-spacing:0px;text-anchor:middle;fill:#000000;fill-opacity:1;stroke:none;stroke-width:0.28222224"
       d="m 269.38415,271.65299 q 0,-1.55773 0.78383,-2.64914 0.78383,-1.09141 2.27211,-1.09141 1.36922,0 2.26219,0.98227 0.90289,0.97234 0.90289,2.86742 0,1.84547 -0.91282,2.84758 -0.90289,0.99219 -2.23242,0.99219 -1.31961,0 -2.20265,-0.98227 -0.87313,-0.98226 -0.87313,-2.96664 z m 3.10555,-2.51023 q -0.66477,0 -1.11125,0.57547 -0.43656,0.57546 -0.43656,2.11335 0,1.39899 0.44648,1.97446 0.44648,0.56555 1.10133,0.56555 0.67469,0 1.11125,-0.57547 0.44648,-0.57547 0.44648,-2.10344 0,-1.40891 -0.44648,-1.97445 -0.44649,-0.57547 -1.11125,-0.57547 z m 0.01,14.09898 7.95734,-15.3293 h 1.4486 l -7.92756,15.3293 z m 6.29047,-3.9489 q 0,-1.56766 0.78383,-2.64915 0.78382,-1.0914 2.28203,-1.0914 1.36922,0 2.26219,0.98226 0.90289,0.97235 0.90289,2.86743 0,1.84547 -0.91282,2.84757 -0.90289,0.99219 -2.24234,0.99219 -1.31961,0 -2.20266,-0.98226 -0.87312,-0.99219 -0.87312,-2.96664 z m 3.11547,-2.51024 q -0.67469,0 -1.12118,0.57547 -0.43656,0.57547 -0.43656,2.11336 0,1.38906 0.44649,1.96453 0.44648,0.57547 1.10132,0.57547 0.68461,0 1.12118,-0.57547 0.44648,-0.57547 0.44648,-2.10344 0,-1.4089 -0.44648,-1.97445 -0.44649,-0.57547 -1.11125,-0.57547 z" />
  </g>
</svg>
