<?xml version="1.0" encoding="UTF-8" standalone="no"?>
<!-- Created with Inkscape (http://www.inkscape.org/) -->

<svg
   xmlns:dc="http://purl.org/dc/elements/1.1/"
   xmlns:cc="http://creativecommons.org/ns#"
   xmlns:rdf="http://www.w3.org/1999/02/22-rdf-syntax-ns#"
   xmlns:svg="http://www.w3.org/2000/svg"
   xmlns="http://www.w3.org/2000/svg"
   xmlns:sodipodi="http://sodipodi.sourceforge.net/DTD/sodipodi-0.dtd"
   xmlns:inkscape="http://www.inkscape.org/namespaces/inkscape"
   width="12in"
   height="12in"
   viewBox="0 0 304.8 304.80001"
   version="1.1"
   id="svg331"
   inkscape:version="0.92.2 (5c3e80d, 2017-08-06)"
   sodipodi:docname="DPRGLogo.svg">
  <defs
     id="defs325">
    <pattern
       y="0"
       x="0"
       height="6"
       width="6"
       patternUnits="userSpaceOnUse"
       id="EMFhbasepattern" />
    <pattern
       y="0"
       x="0"
       height="6"
       width="6"
       patternUnits="userSpaceOnUse"
       id="EMFhbasepattern-0" />
  </defs>
  <sodipodi:namedview
     id="base"
     pagecolor="#ffffff"
     bordercolor="#666666"
     borderopacity="1.0"
     inkscape:pageopacity="0.0"
     inkscape:pageshadow="2"
     inkscape:zoom="0.7734375"
     inkscape:cx="576"
     inkscape:cy="576"
     inkscape:document-units="mm"
     inkscape:current-layer="layer1"
     showgrid="false"
     units="in"
     inkscape:window-width="1858"
     inkscape:window-height="1058"
     inkscape:window-x="1912"
     inkscape:window-y="-8"
     inkscape:window-maximized="1" />
  <metadata
     id="metadata328">
    <rdf:RDF>
      <cc:Work
         rdf:about="">
        <dc:format>image/svg+xml</dc:format>
        <dc:type
           rdf:resource="http://purl.org/dc/dcmitype/StillImage" />
        <dc:title />
      </cc:Work>
    </rdf:RDF>
  </metadata>
  <g
     inkscape:label="Layer 1"
     inkscape:groupmode="layer"
     id="layer1"
     transform="translate(0,7.8000168)">
    <path
       d="m 149.54951,220.14255 5.636,3.5604 -6.525,-1.9318 z m -0.902,1.6381 0.625,6.4657 -2.501,-6.1197 z m -1.892,0.3418 -4.857,4.5024 3.406,-5.6997 z m -1.457,-1.2118 -6.682,-0.8516 6.749,-0.9874 z m 0.07,-1.8532 -3.475,-5.5642 5.01,4.4684 z m 1.551,-1.0988 2.348,-6.0869 -0.502,6.5593 z m 1.859,0.4827 6.403,-2.0259 -5.636,3.7109 z"
       style="fill:#ffffff;fill-rule:evenodd;stroke:#ffffff;stroke-width:0.64320433;stroke-linecap:butt;stroke-linejoin:miter;stroke-dasharray:none"
       id="path830"
       inkscape:connector-curvature="0" />
    <rect
       style="opacity:1;fill:#ffffff;fill-opacity:1;stroke:none;stroke-width:231.61274719;stroke-linejoin:round;stroke-miterlimit:4;stroke-dasharray:none;stroke-dashoffset:0;stroke-opacity:1"
       id="rect4581"
       width="3.6591859"
       height="3.8616178"
       x="218.16147"
       y="-149.49429"
       transform="rotate(90)" />
    <path
       id="path146"
       d="m 153.40307,25.345958 c 30.47633,0 59.7054,12.436367 81.25213,34.57961 21.54673,22.161315 33.65773,52.203812 33.65773,83.529722 0,47.77516 -27.9999,90.83245 -70.93067,109.1074 -42.94885,18.29303 -92.36895,8.1885 -125.249388,-25.59576 C 39.270502,193.18267 29.437092,142.38879 47.223982,98.246916 65.010872,54.123136 106.91131,25.345958 153.40307,25.345958 Z"
       style="fill:#1b1918;fill-opacity:1;fill-rule:evenodd;stroke:#1b1918;stroke-width:0.54228342px;stroke-linecap:butt;stroke-linejoin:miter;stroke-miterlimit:4;stroke-dasharray:none;stroke-opacity:1"
       inkscape:connector-curvature="0" />
    <path
       id="path148"
       d="m 156.09641,41.885604 c 0.28922,0 0.66882,32.808151 1.01227,35.953392 10.70105,14.04514 46.32907,12.79788 56.0721,13.70168 2.89218,-1.10264 7.3389,-3.362146 8.69461,-3.271756 l 17.38922,6.814686 c 1.93415,0.10845 5.45899,-0.45191 5.78436,0.28921 0.63266,1.37378 -2.8018,20.877914 0.28922,28.722944 2.42219,6.1278 8.2427,13.91861 7.24852,18.36534 -0.86766,3.94059 -3.05487,8.1704 -2.53066,11.74947 0.27114,1.80762 2.45835,4.22982 0.79535,5.42284 -17.4796,12.52675 -48.28129,23.95084 -52.45689,37.59832 -2.71141,8.82114 -3.72367,12.36405 -4.33826,23.6797 -0.16269,3.01872 3.21755,11.08065 3.94059,14.00898 0.14461,0.52422 -0.48806,1.31957 -0.99419,1.24726 -8.76691,-1.33763 -20.51638,-1.50032 -27.60222,-8.15233 l -7.53773,-22.48667 c -8.92961,-13.03289 -18.52802,-33.94695 -26.78881,-39.08057 -8.27886,-5.1517 -15.88891,-3.28986 -17.84112,0.28922 -2.65719,4.88055 -3.39832,17.62421 -7.97157,14.6055 l -20.733288,-13.71978 -7.23046,-16.88308 c -8.0258,-8.67654 -27.74684,-26.0296 -24.05929,-26.04769 l 53.324518,-0.28921 0.0542,-82.75245 z"
       style="fill:#008bd0;fill-opacity:1;fill-rule:evenodd;stroke:none;stroke-width:0.22595309"
       inkscape:connector-curvature="0" />
    <path
       id="path150"
       d="m 126.46966,170.226 c 0.10846,0.48806 0.16268,0.99419 0.16268,1.50033 0,2.47642 -1.2834,4.62748 -3.19946,5.83857 v 20.19104 h 4.79016 v 5.73011 l -4.13943,9.94186 h -1.08457 v -11.06257 h -6.16394 v 11.06257 h -1.28341 l -3.95867,-10.01415 v -5.65782 h 4.80825 v -20.15488 c -1.95222,-1.19302 -3.27177,-3.38023 -3.27177,-5.87473 0,-3.54292 2.67526,-6.48933 6.07356,-6.83277 l 10.10454,-17.08193 c 0,-0.0361 0,-0.0723 0,-0.12654 0,-3.95866 3.16333,-7.17621 7.04969,-7.17621 2.09684,0 3.99482,0.95803 5.29631,2.44027 l 6.52548,-0.0723 c -0.0362,-1.87991 -0.0362,-3.65137 -0.0181,-5.3686 h -4.8444 c -1.42801,0 -2.60296,-1.19303 -2.60296,-2.63911 v -7.73658 h -4.33826 v -9.56227 h 1.2834 v -12.54482 c -0.54228,-0.27114 -0.92188,-0.84958 -0.92188,-1.5184 0,-0.92188 0.74113,-1.68107 1.663,-1.68107 0.9038,0 1.663,0.75919 1.663,1.68107 0,0.66882 -0.3796,1.24726 -0.93995,1.5184 v 12.54482 h 1.59069 v -5.20592 c 0,-1.46417 1.17495,-2.63912 2.60296,-2.63912 h 22.37825 c 1.42801,0 2.58489,1.17495 2.58489,2.63912 v 22.50477 c 0,1.44608 -1.15688,2.63911 -2.58489,2.63911 h -5.62168 c 0.0361,1.77145 0.0361,3.6333 0,5.58551 l 5.58553,0.12653 c 1.28341,-1.40993 3.12717,-2.27759 5.1517,-2.27759 3.12716,0 5.80242,2.09684 6.7243,4.97094 l 17.73268,10.82759 c 0.0181,0 0.0181,-0.0181 0.0361,-0.0181 v -18.79917 h -4.80824 v -3.45253 -1.48225 l 1.50031,-0.0181 3.59715,-10.79142 h 1.2834 v 11.08065 l 3.94059,-0.0361 v -11.08065 h 1.08458 l 3.88636,10.89989 1.33763,-0.0181 v 4.89862 h -4.79017 v 19.66682 c 1.53647,1.24725 2.54872,3.19947 2.54872,5.3686 0,3.77791 -3.03678,6.86892 -6.76046,6.86892 -3.09102,0 -5.71204,-2.15105 -6.48932,-5.04323 l -19.21491,-9.3092 -1.73531,34.47115 h 0.54228 c 1.01227,0 1.86185,0.74112 1.86185,1.62685 v 17.53383 c 0,0.84957 -0.7592,1.53646 -1.69916,1.60877 v 18.70878 c 0.92189,1.24726 1.46417,2.8018 1.46417,4.48289 0,1.66298 -0.54228,3.19945 -1.42802,4.44671 v 15.38278 h 3.43446 v 15.437 h -18.00381 v -15.43709 h 2.92833 v -15.05741 c -1.06649,-1.30149 -1.69914,-2.96447 -1.69914,-4.77208 0,-1.80763 0.61458,-3.45254 1.66299,-4.75403 l 0,-18.41956 h -0.19883 c -1.01227,0 -1.84377,-0.74113 -1.84377,-1.62685 v -7.41121 l -7.7185,-0.0181 v 7.42928 c 0,0.88571 -0.8315,1.62685 -1.86184,1.62685 h -0.14461 l 0,18.11226 c 0.92189,1.26534 1.46417,2.81987 1.46417,4.50096 0,1.53646 -0.4519,2.98256 -1.24725,4.17557 v 16.03352 h 3.83214 v 15.45508 h -18.00382 v -15.45497 h 2.53066 v -15.22009 c -1.17495,-1.31956 -1.87991,-3.07294 -1.87991,-4.989 0,-1.80763 0.61458,-3.45254 1.663,-4.75403 l 0,-17.85919 c -0.95804,-0.0723 -1.73531,-0.77728 -1.73531,-1.62685 v -17.53383 c 0,-0.88574 0.8315,-1.62685 1.86184,-1.62685 h 0.56036 l -1.80762,-31.74166 z"
       style="fill:#ffffff;fill-opacity:1;fill-rule:evenodd;stroke:#d9dadb;stroke-width:0.54228342px;stroke-linecap:butt;stroke-linejoin:miter;stroke-miterlimit:4;stroke-dasharray:none;stroke-opacity:1"
       inkscape:connector-curvature="0" />
    <path
       id="path152"
       d="m 143.78658,116.81109 c 0.54228,-0.72304 8.38732,1.89799 11.08065,1.87992 2.71141,-0.0181 9.65264,-2.54874 9.92379,-1.86184 0.28922,0.68689 -7.89926,8.22462 -10.03224,8.22462 -2.13298,0 -11.49641,-7.51965 -10.9722,-8.2427 z"
       style="fill:#1b1918;fill-opacity:1;fill-rule:evenodd;stroke:none;stroke-width:0.22595309"
       inkscape:connector-curvature="0" />
    <path
       id="path156"
       d="m 84.189642,265.6498 1.82568,-8.58614 1.95222,1.12073 -1.42801,5.89281 5.58551,-3.4887 1.2834,0.74113 -1.30147,5.96512 5.42283,-3.59716 1.68108,0.9761 -8.00771,5.02518 -1.26533,-0.74113 1.26533,-6.07357 -5.73013,3.50677 z m 14.80433,7.46546 0.4519,-8.73076 2.114898,0.86763 -0.48806,6.01935 4.98901,-4.1575 1.39186,0.57843 -0.36152,6.07357 4.79018,-4.2298 1.82569,0.74112 -7.14007,5.9832 -1.37378,-0.57844 0.30729,-6.18203 -5.11554,4.19364 z m 15.943128,5.60359 -1.10265,-8.71269 2.24144,0.57842 0.57844,6.01936 4.19366,-4.80824 1.46417,0.37959 0.72304,6.0555 3.99482,-4.86246 1.93415,0.48802 -6.00128,6.90509 -1.46416,-0.37961 -0.77727,-6.14587 -4.32019,4.84441 z m 16.97347,0.74113 0.3796,0.0723 c 0.19884,0.0181 0.3073,0.0904 0.36152,0.1988 0.0542,0.10846 0.0542,0.30731 0,0.57845 l -0.32537,1.51841 c -0.0542,0.28921 -0.14461,0.48806 -0.23498,0.54228 -0.10847,0.0723 -0.3796,0.0723 -0.79536,0 l -1.89799,-0.32537 c -0.18076,-0.0181 -0.3073,-0.10846 -0.36152,-0.21691 -0.0542,-0.10846 -0.0542,-0.28922 0,-0.56037 l 0.32537,-1.53649 c 0.0723,-0.28919 0.1446,-0.46995 0.25306,-0.52418 0.0904,-0.0723 0.36153,-0.0723 0.79535,0 z m 6.52548,2.20527 2.85603,0.21692 c 1.55454,0.12653 2.65719,0 3.30792,-0.34345 0.66882,-0.36152 1.04842,-1.01226 1.13879,-1.97029 0.0723,-0.83151 -0.12653,-1.48226 -0.61458,-1.93416 -0.46998,-0.43383 -1.24725,-0.70497 -2.31374,-0.79536 l -3.90444,-0.28919 z m -2.38605,1.33762 0.7592,-8.08002 6.1278,0.46999 c 1.75338,0.14461 3.05486,0.59652 3.94059,1.3557 0.86766,0.77727 1.24725,1.78955 1.12073,3.091 -0.12654,1.35572 -0.72306,2.33185 -1.77146,2.92836 -1.0665,0.5965 -2.60297,0.81341 -4.60941,0.6688 z m 14.8405,1.03035 -0.18077,-8.09809 8.20656,-0.12654 c 0.75919,-0.0181 1.30148,0.0904 1.64492,0.34346 0.32537,0.23498 0.50613,0.63264 0.52421,1.193 l 0.0361,1.78955 c 0.0181,0.56036 -0.14461,0.95802 -0.46998,1.21108 -0.32537,0.25307 -0.86766,0.37961 -1.62686,0.39769 l -6.01934,0.0904 0.0723,3.16333 z m 7.10391,-6.8147 -5.06132,0.0723 0.0361,2.15107 5.0794,-0.0723 c 0.37959,-0.0181 0.65074,-0.0723 0.79534,-0.16269 0.14461,-0.10845 0.19884,-0.27113 0.19884,-0.52421 l -0.0181,-0.8315 c 0,-0.23499 -0.0904,-0.39768 -0.23498,-0.50614 -0.14461,-0.0904 -0.41575,-0.14461 -0.79535,-0.12653 z m 12.52675,-1.19301 -5.02516,0.61459 0.36152,2.22336 5.02516,-0.63267 c 0.37959,-0.0361 0.63265,-0.12653 0.75919,-0.23499 0.12654,-0.12654 0.16269,-0.28923 0.12654,-0.52421 l -0.14462,-0.93995 c -0.0361,-0.21691 -0.12653,-0.37959 -0.28922,-0.46999 -0.16268,-0.0723 -0.43383,-0.0904 -0.81341,-0.0362 z m -6.10973,7.53773 -1.30148,-8.02579 8.11617,-1.01227 c 0.74112,-0.10846 1.30148,-0.0542 1.68108,0.16269 0.37959,0.19883 0.59651,0.57844 0.68689,1.12072 l 0.30729,1.87991 c 0.0904,0.56036 -0.0181,0.95804 -0.30729,1.24727 -0.28921,0.28921 -0.81342,0.46997 -1.55455,0.56036 l -1.22917,0.16268 4.77209,2.4945 -3.14524,0.39767 -4.28404,-2.56682 -2.06068,0.27115 0.48806,3.03678 z m 20.71522,-10.14069 -6.72431,1.48224 1.40993,4.91669 6.70624,-1.50031 -0.46998,-1.663 -3.50677,0.77726 -0.39767,-1.39184 5.62167,-1.24726 0.77728,2.71141 c 0.19884,0.72305 0.18075,1.24726 -0.0542,1.57263 -0.25308,0.32537 -0.81344,0.59652 -1.71725,0.79533 l -6.39894,1.42802 c -0.9038,0.19885 -1.53647,0.19885 -1.93414,0.0181 -0.3796,-0.19884 -0.6869,-0.65074 -0.88573,-1.3738 l -1.17495,-4.13941 c -0.21691,-0.72305 -0.19884,-1.24726 0.0542,-1.57264 0.235,-0.34345 0.81344,-0.59651 1.69917,-0.79533 l 6.39893,-1.42803 c 0.88573,-0.19885 1.53649,-0.19885 1.91607,-0.0181 0.39767,0.18076 0.6869,0.59651 0.88574,1.26534 l 0.0542,0.21692 -2.02453,0.77725 z m 8.4777,1.15686 0.36152,-0.10845 c 0.18076,-0.0542 0.32537,-0.0542 0.43382,0.0181 0.10846,0.0723 0.21691,0.235 0.3073,0.48806 l 0.57843,1.48225 c 0.10846,0.27112 0.14462,0.46997 0.0904,0.57843 -0.0361,0.10845 -0.27115,0.21691 -0.6869,0.34343 l -1.8076,0.56037 c -0.18077,0.0542 -0.32537,0.0542 -0.43383,-0.0181 -0.10846,-0.0723 -0.21691,-0.23498 -0.32537,-0.50613 l -0.57844,-1.46415 c -0.10846,-0.27114 -0.12653,-0.46998 -0.0904,-0.57844 0.0542,-0.10846 0.28922,-0.21691 0.68689,-0.34345 z m 6.92315,-0.72306 6.65201,-2.76563 -2.44028,-4.59132 -6.63393,2.76564 z m -4.22982,-3.36213 c -0.36152,-0.66882 -0.45189,-1.19303 -0.28922,-1.55456 0.16269,-0.36152 0.66883,-0.72305 1.5184,-1.06649 l 6.38087,-2.65719 c 0.84958,-0.36152 1.48224,-0.46998 1.89799,-0.34345 0.41575,0.10846 0.79536,0.50614 1.15688,1.17495 l 2.0426,3.88638 c 0.36152,0.6688 0.4519,1.17492 0.28921,1.55453 -0.18076,0.36153 -0.66881,0.72305 -1.51839,1.06651 l -6.36279,2.65717 c -0.84958,0.34346 -1.48225,0.46999 -1.89799,0.34346 -0.43384,-0.12653 -0.81343,-0.52422 -1.17495,-1.19303 z m 19.12454,-9.56226 -4.33827,2.33181 1.30148,1.91606 4.35634,-2.31374 c 0.32537,-0.18076 0.52421,-0.34345 0.57844,-0.50613 0.0723,-0.14462 0.0361,-0.32537 -0.10846,-0.52422 l -0.54228,-0.79532 c -0.12653,-0.19885 -0.28922,-0.32537 -0.46998,-0.34346 -0.18076,-0.0181 -0.4519,0.0723 -0.77727,0.235 z m -2.29567,9.09228 -4.71787,-6.9593 7.01354,-3.75985 c 0.63266,-0.34344 1.17495,-0.48805 1.60877,-0.43383 0.43383,0.0723 0.81343,0.32538 1.1388,0.81344 l 1.10264,1.62685 c 0.32537,0.46997 0.41575,0.88572 0.27114,1.24725 -0.14461,0.36152 -0.54228,0.72305 -1.19302,1.06649 l -1.06649,0.57845 5.49513,0.63263 -2.72949,1.46418 -5.04323,-0.86766 -1.80761,0.95805 1.78953,2.62104 z m 14.17168,-16.68426 -5.36861,3.88637 3.59714,3.92252 5.36861,-3.88637 -1.22917,-1.33764 -2.8018,2.02453 -1.03034,-1.10264 4.50095,-3.25371 1.98837,2.16914 c 0.52421,0.57843 0.7592,1.06649 0.70497,1.46417 -0.0723,0.37961 -0.4519,0.8315 -1.17494,1.35569 l -5.11555,3.70561 c -0.72304,0.50614 -1.30147,0.7592 -1.7353,0.72305 -0.4519,-0.0181 -0.92188,-0.32537 -1.46417,-0.90381 l -3.03678,-3.30793 c -0.52421,-0.57842 -0.7592,-1.06648 -0.6869,-1.44609 0.0542,-0.39767 0.45191,-0.84957 1.15687,-1.37378 l 5.11555,-3.68753 c 0.72304,-0.52419 1.30147,-0.77726 1.7353,-0.7411 0.43383,0.0181 0.90381,0.28921 1.39186,0.8134 l 0.16269,0.18077 -1.46417,1.46417 z"
       style="fill:#ffffff;fill-opacity:1;fill-rule:evenodd;stroke:#3b3b3b;stroke-width:0.54228342px;stroke-linecap:butt;stroke-linejoin:miter;stroke-miterlimit:4;stroke-dasharray:none;stroke-opacity:1"
       inkscape:connector-curvature="0" />
    <path
       id="path158"
       d="m 24.610762,131.68773 0.46998,-3.28985 c 0.25306,-1.73531 0.16268,-3.01871 -0.25307,-3.81406 -0.41576,-0.81343 -1.24724,-1.30148 -2.45835,-1.48224 -1.0665,-0.16269 -1.93414,0.0181 -2.58488,0.54229 -0.63267,0.5242 -1.04843,1.37378 -1.21112,2.54872 l -0.65071,4.50096 z m 1.62685,2.83795 -10.57453,-1.57262 1.01227,-7.01353 c 0.28922,-2.00645 0.97611,-3.47061 2.02452,-4.42864 1.06649,-0.92189 2.42221,-1.28342 4.0852,-1.03034 0.9942,0.1446 1.84375,0.48805 2.58489,1.03034 0.72304,0.54227 1.26532,1.21109 1.60878,2.04259 0.21691,0.52421 0.32537,1.13879 0.36152,1.86184 0.0361,0.72305 -0.0362,1.64493 -0.19883,2.74757 z m 2.16913,-15.65391 -7.15813,-7.41121 0.50612,-2.0426 9.77918,-3.05486 -0.59652,2.38605 -2.13297,0.61458 -1.44608,5.78436 1.59068,1.5907 z m -2.36796,-5.02516 1.01227,-4.0129 -4.04907,1.12072 z m 6.09165,-9.74302 -8.18847,-3.1091 0.7411,-2.078754 6.67009,2.530654 2.38605,-6.633934 1.53647,0.57843 z m 3.95867,-11.044514 -7.89927,-3.832126 0.92189,-2.00645 6.41702,3.109086 2.9464,-6.398943 1.48224,0.723045 z m 4.10327,-9.562254 -4.75402,-9.254977 1.06651,-1.80761 10.21299,0.01811 -1.24724,2.114904 -2.22339,-0.05423 -3.0187,5.097467 1.0665,2.006447 z m -0.84956,-5.531298 2.09682,-3.542913 -4.17559,-0.144607 z m 7.33888,-18.672621 -3.57907,5.007081 1.48225,1.138795 3.38024,-4.754017 c 0.54229,-0.741122 1.01224,-1.156874 1.428,-1.229172 0.41575,-0.09039 0.93996,0.108457 1.5907,0.596507 l 0.95802,0.741123 c 0.65075,0.488059 0.9942,0.939959 1.03035,1.391859 0.0542,0.433831 -0.18077,1.012268 -0.70498,1.753382 l -3.38022,4.735947 c -0.54227,0.741114 -1.01226,1.156865 -1.44609,1.247251 -0.41575,0.09038 -0.93995,-0.108457 -1.59071,-0.596516 l -0.19881,-0.144606 0.84957,-1.789533 0.8315,0.614588 3.81406,-5.350533 -1.60878,-1.211094 -3.36215,4.717858 c -0.54228,0.741124 -1.01226,1.156874 -1.42801,1.247253 -0.43383,0.07233 -0.95804,-0.126529 -1.6088,-0.614588 l -0.77725,-0.596507 c -0.63266,-0.46998 -0.97612,-0.939959 -1.03034,-1.373789 -0.0362,-0.4519 0.19884,-1.030337 0.72305,-1.771461 l 3.09102,-4.338265 c 0.52418,-0.723044 0.99417,-1.138796 1.428,-1.247253 0.41575,-0.108458 0.90381,0.05423 1.46417,0.488059 l 0.18077,0.126528 -0.77729,1.78954 z m 14.51511,-6.471248 -5.91088,-6.615856 5.80243,-5.513219 c 0.52422,-0.524208 1.01227,-0.777273 1.42802,-0.813422 0.41576,-0.0181 0.83151,0.198836 1.22918,0.650737 l 1.30148,1.464167 c 0.41575,0.4519 0.57843,0.903801 0.52421,1.337631 -0.0542,0.41575 -0.34346,0.88573 -0.88574,1.391859 l -4.24787,4.049052 2.29566,2.584883 z m 0.23499,-10.357614 -3.57905,3.416386 1.55454,1.753381 3.59715,-3.416385 c 0.27114,-0.253064 0.41575,-0.46998 0.45191,-0.650744 0.0362,-0.180757 -0.0361,-0.361523 -0.21692,-0.560359 l -0.61459,-0.686894 c -0.16269,-0.198836 -0.34346,-0.289214 -0.52421,-0.271135 -0.16268,0.0181 -0.39768,0.162686 -0.66883,0.41575 z m 9.30921,1.229174 -5.20591,-7.212372 7.53774,-5.802433 0.90379,1.265332 -5.80243,4.482873 1.13881,1.572625 3.38022,-2.602963 0.9038,1.247253 -3.39832,2.602963 1.28342,1.771461 5.91088,-4.537111 0.97613,1.35571 z m 12.20139,-18.166492 -4.13944,2.639112 1.26532,2.132983 4.13943,-2.657192 c 0.32537,-0.198835 0.50614,-0.3796 0.57845,-0.560357 0.0542,-0.162686 0.0181,-0.361522 -0.10846,-0.578437 l -0.52421,-0.88573 c -0.14461,-0.234986 -0.28921,-0.343444 -0.46998,-0.361523 -0.18075,-0.0181 -0.41575,0.07233 -0.74111,0.271144 z m -2.15106,10.122619 -4.57328,-7.664272 6.72434,-4.284037 c 0.61458,-0.379601 1.12071,-0.560357 1.53646,-0.488059 0.41576,0.05423 0.77728,0.343453 1.08456,0.867661 l 1.08457,1.807611 c 0.30729,0.524208 0.39768,0.976108 0.25307,1.391859 -0.12653,0.397672 -0.50613,0.795352 -1.12072,1.193024 l -1.03033,0.650736 5.27822,0.650745 -2.60296,1.663003 -4.86248,-0.921888 -1.71723,1.102645 1.73531,2.892177 z m 15.70814,-17.569976 -5.42284,2.711412 0.79535,1.717231 5.13361,-2.566804 c 0.81343,-0.39768 1.42801,-0.542288 1.8257,-0.41575 0.39767,0.126527 0.77727,0.560357 1.12071,1.301481 l 0.506128,1.120715 c 0.36152,0.741124 0.45191,1.319553 0.28922,1.735303 -0.16268,0.415751 -0.63266,0.813431 -1.428018,1.211103 l -5.13361,2.548734 c -0.81343,0.397672 -1.42801,0.542279 -1.84376,0.415751 -0.41575,-0.126537 -0.79535,-0.560358 -1.13879,-1.301482 l -0.0904,-0.216915 1.55455,-1.193023 0.43382,0.95803 5.80244,-2.892178 -0.84957,-1.843759 -5.11555,2.530654 c -0.81343,0.415752 -1.40993,0.542288 -1.82569,0.415752 -0.41575,-0.126529 -0.79534,-0.560359 -1.13879,-1.301482 l -0.41576,-0.903801 c -0.34344,-0.741123 -0.43382,-1.31956 -0.27113,-1.717232 0.16268,-0.415751 0.65074,-0.831502 1.44608,-1.229174 l 4.68172,-2.331819 c 0.79534,-0.39768 1.40993,-0.542287 1.82569,-0.433829 0.41576,0.126536 0.77727,0.506129 1.08455,1.156874 l 0.0904,0.198836 -1.50032,1.193024 z m 9.309188,2.006446 6.61586,-2.584883 -1.93414,-5.260155 -6.59778,2.584885 z m -3.74176,-4.049051 c -0.28921,-0.759194 -0.32536,-1.337631 -0.1446,-1.735311 0.19884,-0.397672 0.70496,-0.759193 1.53647,-1.084558 l 6.34471,-2.476434 c 0.84958,-0.325364 1.46417,-0.415751 1.84376,-0.253065 0.39768,0.180765 0.72305,0.632666 1.01227,1.409939 l 1.60878,4.446722 c 0.28921,0.777273 0.32536,1.355711 0.14461,1.753382 -0.19884,0.397672 -0.70497,0.759194 -1.53647,1.084567 l -6.34472,2.476426 c -0.83151,0.325372 -1.44609,0.39768 -1.84376,0.234994 -0.39768,-0.162687 -0.72304,-0.632666 -1.01227,-1.409938 z m 16.5035,1.283402 -1.75338,-8.8392161 1.44609,-0.307293 8.42347,4.3021151 -1.15688,-5.8747411 1.898,-0.397671 1.7353,8.8211461 -1.42801,0.325364 -8.44154,-4.410574 1.17494,5.96512 z m 13.24979,-3.091012 4.32019,-9.5261121 2.0426,-0.198836 6.09165,8.4234661 -2.38604,0.234995 -1.28341,-1.843769 -5.7482,0.596516 -0.92189,2.096824 z m 3.77791,-4.049052 3.99482,-0.4157501 -2.38605,-3.524843 z m 10.80951,2.494506 -0.0723,-9.0199821 2.15105,-0.03612 0.0723,7.3388991 6.85085,-0.09038 0.0181,1.681083 z m 27.27685,-5.9470401 -4.82631,-0.632666 -0.3073,2.476426 4.82633,0.632666 c 0.36152,0.03612 0.61459,0.0181 0.77727,-0.07233 0.14461,-0.09038 0.23499,-0.271143 0.27114,-0.524208 l 0.12654,-1.030337 c 0.0361,-0.271144 0,-0.46998 -0.12654,-0.596509 -0.12653,-0.126536 -0.3796,-0.216914 -0.74113,-0.253072 z m -7.84502,6.5073971 1.13879,-8.9657531 7.80888,1.030338 c 0.70498,0.09038 1.2111,0.289222 1.50032,0.614596 0.27114,0.307293 0.3796,0.777264 0.30729,1.391859 l -0.27114,2.096824 c -0.0723,0.6145881 -0.28922,1.0303381 -0.65074,1.2472531 -0.34344,0.234986 -0.88573,0.307293 -1.5907,0.198836 l -1.19302,-0.144607 3.68753,3.922515 -3.03679,-0.397672 -3.19948,-3.868286 -1.98836,-0.253065 -0.43383,3.398306 z m 15.34662,1.012259 6.86892,1.663004 1.26533,-5.495131 -6.85084,-1.6630031 z m -0.90381,-5.5312891 c 0.19884,-0.795343 0.46999,-1.301473 0.83151,-1.518387 0.37959,-0.234994 0.99419,-0.234994 1.86183,-0.0181 l 6.5797,1.590697 c 0.88574,0.216914 1.42802,0.506129 1.66301,0.867651 0.23499,0.361521 0.25306,0.9399591 0.0723,1.7353111 l -1.08456,4.645559 c -0.18076,0.795352 -0.45191,1.301481 -0.83151,1.518396 -0.37959,0.216914 -0.99418,0.234986 -1.86183,0.0181 l -6.5797,-1.590696 c -0.86767,-0.216915 -1.40995,-0.506138 -1.64495,-0.867652 -0.23497,-0.36153 -0.25306,-0.939958 -0.0723,-1.753389 z m 12.96058,10.8456721 3.19946,-8.405396 7.30276,2.928336 c 0.68689,0.271135 1.12071,0.596507 1.31956,0.976108 0.21692,0.379593 0.19883,0.849573 -0.0181,1.42801 l -0.3796,1.012267 c -0.14461,0.379592 -0.3796,0.650737 -0.72304,0.795343 -0.32538,0.162687 -0.74112,0.180766 -1.2111,0.09038 0.41575,0.253065 0.70496,0.578429 0.84956,0.95803 0.1627,0.379602 0.14463,0.795352 -0.0181,1.229182 l -0.41574,1.066487 c -0.19885,0.560358 -0.56036,0.885731 -1.08457,0.994188 -0.5242,0.10845 -1.2111,-0.0181 -2.06069,-0.361521 z m 9.0742,-4.464802 -4.44672,-1.789531 -0.7592,1.988366 4.44672,1.789541 c 0.34346,0.144607 0.59652,0.180757 0.7592,0.144607 0.14462,-0.03612 0.27115,-0.162687 0.36153,-0.397672 l 0.30729,-0.795352 c 0.0723,-0.216915 0.0723,-0.397671 -0.0181,-0.524208 -0.0904,-0.144607 -0.30729,-0.271144 -0.65073,-0.415751 z m -1.2834,3.380236 -4.44673,-1.78954 -0.81342,2.151062 4.44672,1.789531 c 0.36152,0.144616 0.63267,0.180766 0.81343,0.126537 0.18077,-0.05423 0.32537,-0.216915 0.43383,-0.488059 l 0.23498,-0.650736 c 0.10846,-0.271144 0.10846,-0.50613 0.0181,-0.668815 -0.0904,-0.162687 -0.32537,-0.325373 -0.68688,-0.46998 z m 7.28468,5.657826 6.25433,3.325998 2.53066,-5.007081 -6.25434,-3.326007 z m 0.41574,-5.603597 c 0.3796,-0.723045 0.7592,-1.138796 1.17495,-1.265332 0.39767,-0.126529 0.99419,0.03612 1.78954,0.451909 l 6.01934,3.19947 c 0.79535,0.415751 1.26533,0.831501 1.40994,1.247253 0.12653,0.415751 0.0181,0.976109 -0.34345,1.699153 l -2.13298,4.247886 c -0.37959,0.723045 -0.75919,1.156866 -1.17494,1.265323 -0.41575,0.126537 -1.01226,-0.0181 -1.78954,-0.451899 l -6.01934,-3.181392 c -0.79535,-0.43383 -1.24726,-0.849581 -1.39186,-1.247253 -0.14462,-0.41575 -0.0361,-0.994188 0.34344,-1.717232 z m 18.25688,10.321454 -3.95867,6.200113 -1.77146,-1.193023 3.95867,-6.200113 -3.52484,-2.38604 0.84958,-1.35571 8.83922,5.98319 -0.86766,1.35571 z m 1.75338,10.393772 5.44091,-7.085836 1.64493,1.355702 -5.42284,7.085843 z m 15.18394,3.452534 -4.32019,-3.904435 -3.61522,4.247887 4.30211,3.904435 1.24725,-1.446089 1.31956,1.78954 -0.68689,0.813423 c -0.52421,0.614587 -1.01227,0.92188 -1.42802,0.939959 -0.43382,0.0181 -0.99418,-0.289222 -1.663,-0.903809 l -4.0852,-3.7056 c -0.66882,-0.596516 -1.01226,-1.120724 -1.06649,-1.554545 -0.0362,-0.45191 0.19883,-0.976109 0.72304,-1.590696 l 3.05486,-3.59715 c 0.54229,-0.614588 1.01227,-0.921881 1.42802,-0.93996 0.43383,0 0.97611,0.289223 1.64492,0.88573 l 4.10328,3.723679 c 0.66882,0.614586 1.03034,1.138795 1.06649,1.572625 0.0542,0.433822 -0.19883,0.95803 -0.72304,1.590695 l -0.56036,0.650737 -1.82569,-1.211094 z m 10.15878,11.134886 -3.92252,-4.699788 -1.40994,1.247253 3.7056,4.446723 c 0.57844,0.704965 0.86766,1.265331 0.84958,1.699153 -0.0181,0.43383 -0.32537,0.92188 -0.93996,1.464168 l -0.9038,0.813422 c -0.61459,0.542287 -1.1388,0.777273 -1.55455,0.723044 -0.43382,-0.03612 -0.92188,-0.415751 -1.50032,-1.102645 l -3.68752,-4.428644 c -0.59652,-0.704965 -0.86766,-1.283402 -0.86766,-1.735303 0.0181,-0.433829 0.32537,-0.939958 0.93996,-1.482246 l 0.18076,-0.162686 1.50032,1.247252 -0.77727,0.704974 4.17558,5.02516 1.5184,-1.35571 -3.68753,-4.428652 c -0.57844,-0.686895 -0.84958,-1.265323 -0.84958,-1.717224 0.0181,-0.43383 0.34344,-0.921888 0.93996,-1.464168 l 0.74112,-0.668815 c 0.59651,-0.524208 1.12072,-0.759202 1.53647,-0.704974 0.43382,0.03612 0.93996,0.415752 1.51839,1.120717 l 3.38024,4.04905 c 0.57843,0.686895 0.84957,1.265332 0.84957,1.699162 0,0.451901 -0.25306,0.903801 -0.79535,1.391859 l -0.16268,0.126529 -1.50032,-1.174945 z m 13.17748,19.59451 -3.57907,-5.766283 -4.60941,3.054864 3.57907,5.766282 1.57262,-1.030337 -1.87991,-3.018714 1.31956,-0.867651 2.98256,4.826324 -2.54874,1.681074 c -0.66881,0.451909 -1.2111,0.614587 -1.62685,0.506129 -0.41575,-0.108449 -0.84957,-0.542279 -1.33763,-1.319552 L 257.7384,71.76542 c -0.48806,-0.759194 -0.68689,-1.373781 -0.61459,-1.80761 0.0904,-0.433831 0.4519,-0.867652 1.1388,-1.319553 l 3.88636,-2.566813 c 0.66882,-0.4519 1.2111,-0.614586 1.62685,-0.506129 0.41575,0.108458 0.84958,0.54228 1.33764,1.319552 l 3.3983,5.495139 c 0.46998,0.759203 0.6869,1.35571 0.61459,1.789541 -0.0723,0.433821 -0.41575,0.86765 -1.04841,1.265323 l -0.18076,0.144607 -1.42802,-1.626846 z m 6.16396,12.327907 -2.18721,-4.482869 -2.16914,1.120715 2.18721,4.482874 c 0.16269,0.34345 0.32537,0.54229 0.48806,0.63267 0.14461,0.0723 0.34344,0.0542 0.57843,-0.0723 l 0.90381,-0.46997 c 0.21691,-0.10846 0.36152,-0.25307 0.3796,-0.43383 0.0361,-0.18076 -0.0181,-0.43383 -0.18076,-0.77728 z m -9.59842,-3.05486 7.82696,-4.06713 3.52484,7.24852 c 0.3073,0.66883 0.43383,1.2111 0.34345,1.62686 -0.10846,0.43383 -0.41575,0.77726 -0.95804,1.04841 l -1.82568,0.95804 c -0.54229,0.28921 -0.99419,0.32536 -1.37379,0.16267 -0.3796,-0.18075 -0.72305,-0.5965 -1.04841,-1.26532 l -0.54229,-1.10264 -1.10264,5.368596 -1.37379,-2.819856 1.33764,-4.91671 -0.90381,-1.843768 -2.96448,1.536475 z m 8.06195,13.755906 2.24144,6.887004 5.18784,-1.82568 -2.24144,-6.887004 z m 4.06712,-3.75982 c 0.7592,-0.25306 1.31956,-0.28921 1.69916,-0.0723 0.36152,0.19883 0.70497,0.74111 0.97611,1.60877 l 2.15105,6.615854 c 0.28922,0.88573 0.34345,1.5184 0.18077,1.91608 -0.18077,0.39767 -0.65074,0.72304 -1.40994,0.99418 l -4.37442,1.5184 c -0.7592,0.27114 -1.31956,0.30729 -1.69915,0.0904 -0.36153,-0.19883 -0.70497,-0.74112 -0.97612,-1.60877 l -2.15105,-6.615864 c -0.28922,-0.86765 -0.34345,-1.50032 -0.16269,-1.89799 0.16269,-0.41574 0.63267,-0.74112 1.39186,-1.01226 z m 6.95931,17.208454 -6.94123,1.62685 1.33763,6.12781 6.92315,-1.62685 0.46998,2.16914 -6.5074,1.51839 c -0.77727,0.18076 -1.33763,0.1446 -1.69915,-0.10846 -0.36153,-0.25306 -0.63267,-0.83151 -0.83151,-1.73531 l -1.24725,-5.82051 c -0.19883,-0.9038 -0.18076,-1.53646 0.0362,-1.91607 0.21692,-0.3796 0.70497,-0.66881 1.48224,-0.84957 l 6.52548,-1.51839 z m -6.10973,14.18975 8.67653,-1.06648 0.90381,8.06195 c 0.0904,0.74111 0.0181,1.30147 -0.21691,1.66299 -0.23499,0.36153 -0.63267,0.57844 -1.22918,0.65075 l -1.93414,0.23498 c -0.59651,0.0723 -1.04842,-0.0361 -1.33764,-0.34344 -0.30729,-0.28922 -0.50613,-0.81342 -0.57843,-1.55455 l -0.65074,-5.91089 -3.39831,0.41575 z m 7.98964,6.25434 -0.56036,-4.98901 -2.31374,0.27115 0.56036,4.98901 c 0.0362,0.37959 0.12653,0.63266 0.25307,0.77727 0.10845,0.12653 0.30729,0.16269 0.56035,0.1446 l 0.90381,-0.12653 c 0.25307,-0.0181 0.41575,-0.10845 0.50613,-0.27114 0.0904,-0.16268 0.12653,-0.41574 0.0904,-0.79535 z"
       style="fill:#ffffff;fill-opacity:1;fill-rule:evenodd;stroke:#3b3b3b;stroke-width:0.54228342px;stroke-linecap:butt;stroke-linejoin:miter;stroke-miterlimit:4;stroke-dasharray:none;stroke-opacity:1"
       inkscape:connector-curvature="0" />
    <path
       id="path160"
       d="m 198.97295,116.17843 3.0368,-4.82632 -1.64495,5.58552 z m 1.40994,0.7592 5.51322,-0.52421 -5.224,2.13298 z m 0.28922,1.62684 3.83213,4.13943 -4.86248,-2.91025 z m -1.03035,1.22918 -0.74111,5.71206 -0.8315,-5.76629 z m -1.5907,-0.0542 -4.75401,2.96448 3.81406,-4.28404 z m -0.93995,-1.31956 -5.20592,-2.00644 5.60359,0.41575 z m 0.41575,-1.59069 -1.7353,-5.47706 3.16332,4.82632 z"
       style="fill:#ffffff;fill-opacity:1;fill-rule:evenodd;stroke:#ffffff;stroke-width:0.54228342px;stroke-linecap:butt;stroke-linejoin:miter;stroke-miterlimit:4;stroke-dasharray:none;stroke-opacity:1"
       inkscape:connector-curvature="0" />
    <path
       id="path162"
       d="m 197.29187,116.21458 h 3.10909 v 3.30793 h -3.10909 z"
       style="fill:#ffffff;fill-opacity:1;fill-rule:nonzero;stroke:none;stroke-width:0.22595309"
       inkscape:connector-curvature="0" />
    <path
       id="path164"
       d="m -5.8926814,284.09649 v 21.69133 z"
       style="fill:#ff5555;fill-opacity:1;fill-rule:evenodd;stroke:none;stroke-width:0.22595309"
       inkscape:connector-curvature="0" />
    <path
       id="path172"
       d="m 254.40335,284.09649 v 21.69133 z"
       style="fill:#ff5555;fill-opacity:1;fill-rule:evenodd;stroke:none;stroke-width:0.22595309"
       inkscape:connector-curvature="0" />
  </g>
</svg>
