<?xml version="1.0" encoding="UTF-8" standalone="no"?>
<!-- Created with Inkscape (http://www.inkscape.org/) -->

<svg
   xmlns:dc="http://purl.org/dc/elements/1.1/"
   xmlns:cc="http://creativecommons.org/ns#"
   xmlns:rdf="http://www.w3.org/1999/02/22-rdf-syntax-ns#"
   xmlns:svg="http://www.w3.org/2000/svg"
   xmlns="http://www.w3.org/2000/svg"
   xmlns:sodipodi="http://sodipodi.sourceforge.net/DTD/sodipodi-0.dtd"
   xmlns:inkscape="http://www.inkscape.org/namespaces/inkscape"
   width="12in"
   height="12in"
   viewBox="0 0 304.8 304.80001"
   version="1.1"
   id="svg331"
   inkscape:version="0.92.2 (5c3e80d, 2017-08-06)"
   sodipodi:docname="Stain20.svg">
  <defs
     id="defs325">
    <pattern
       y="0"
       x="0"
       height="6"
       width="6"
       patternUnits="userSpaceOnUse"
       id="EMFhbasepattern" />
  </defs>
  <sodipodi:namedview
     id="base"
     pagecolor="#ffffff"
     bordercolor="#666666"
     borderopacity="1.0"
     inkscape:pageopacity="0.0"
     inkscape:pageshadow="2"
     inkscape:zoom="0.7734375"
     inkscape:cx="576"
     inkscape:cy="576"
     inkscape:document-units="mm"
     inkscape:current-layer="layer1"
     showgrid="false"
     units="in"
     inkscape:window-width="1858"
     inkscape:window-height="1058"
     inkscape:window-x="1912"
     inkscape:window-y="-8"
     inkscape:window-maximized="1" />
  <metadata
     id="metadata328">
    <rdf:RDF>
      <cc:Work
         rdf:about="">
        <dc:format>image/svg+xml</dc:format>
        <dc:type
           rdf:resource="http://purl.org/dc/dcmitype/StillImage" />
        <dc:title />
      </cc:Work>
    </rdf:RDF>
  </metadata>
  <g
     inkscape:label="Layer 1"
     inkscape:groupmode="layer"
     id="layer1"
     transform="translate(0,7.8000168)">
    <path
       style="fill:#cccccc;stroke:none;stroke-width:0.28222224px;stroke-linecap:butt;stroke-linejoin:miter;stroke-opacity:1"
       d="m 209.58285,68.026469 c 0.13126,-15.684832 -13.82236,-30.055362 -29.8339,-29.063633 -10.4725,4.141657 -9.34972,18.452922 -18.63572,24.266064 -9.22715,8.624351 -20.5998,14.576362 -30.14414,22.761268 -9.95292,3.587383 -17.80701,-12.798837 -27.63431,-4.691139 -9.48864,5.501608 -8.058628,18.862911 -3.08431,27.000611 2.47759,14.39738 8.9359,27.68199 13.06864,41.62164 5.25769,13.35565 7.19307,27.62142 8.30853,41.83264 2.14905,10.18356 1.83291,22.28644 10.70766,29.47527 5.69893,6.34634 17.13574,10.74596 24.17187,4.10653 4.52316,-8.63345 2.02912,-20.42697 10.2488,-27.82032 7.01879,-8.61096 11.53813,-20.53606 22.75646,-24.77363 11.33992,-3.58232 23.12438,-6.12101 35.05906,-5.65541 12.95852,-1.17456 21.86955,-13.49936 22.49073,-25.87555 -0.13113,-9.3669 4.48665,-19.50734 -1.21128,-28.06898 -4.73553,-7.78006 -11.89307,-13.679269 -17.8961,-20.40418 -8.08526,-5.970031 -20.12864,-7.751267 -29.14924,-3.271637 -9.69479,4.115775 -18.73203,-9.192132 -8.22375,-14.458002 4.97637,-2.79736 15.25248,-10.406126 19.001,-6.981542 z"
       id="path7934-8-0"
       inkscape:connector-curvature="0"
       sodipodi:nodetypes="ccccccccccccccccccccc" />
    <path
       inkscape:connector-curvature="0"
       id="path14"
       style="font-style:normal;font-variant:normal;font-weight:normal;font-stretch:normal;font-size:20.3200016px;line-height:1.25;font-family:Arial;-inkscape-font-specification:Arial;text-align:center;letter-spacing:0px;word-spacing:0px;text-anchor:middle;fill:#ececec;fill-opacity:1;stroke:#ffffff;stroke-width:0.28222224"
       d="m 235.01517,255.1852 1.8157,-0.15875 q 0.12899,1.09141 0.59531,1.79586 0.47625,0.69453 1.46844,1.13109 0.99219,0.42665 2.23242,0.42665 1.10133,0 1.94469,-0.32743 0.84336,-0.32742 1.25016,-0.89297 0.41672,-0.57546 0.41672,-1.25015 0,-0.68461 -0.39688,-1.19063 -0.39687,-0.51593 -1.30969,-0.8632 -0.58539,-0.2282 -2.58961,-0.70445 -2.00421,-0.48618 -2.80789,-0.91282 -1.04179,-0.5457 -1.55773,-1.34937 -0.50602,-0.81359 -0.50602,-1.8157 0,-1.10133 0.62508,-2.05383 0.62508,-0.96242 1.82563,-1.45852 1.20054,-0.49609 2.66898,-0.49609 1.61727,0 2.84758,0.52586 1.24023,0.51594 1.905,1.52797 0.66477,1.01203 0.71438,2.29195 l -1.84547,0.13891 q -0.14883,-1.37914 -1.01203,-2.0836 -0.85329,-0.70445 -2.53008,-0.70445 -1.74625,0 -2.54993,0.64492 -0.79375,0.635 -0.79375,1.53789 0,0.78383 0.56555,1.28985 0.55563,0.50601 2.89719,1.04179 2.35148,0.52586 3.22461,0.92274 1.27,0.58539 1.87523,1.48828 0.60524,0.89297 0.60524,2.06375 0,1.16086 -0.66477,2.19273 -0.66476,1.02196 -1.91492,1.59742 -1.24023,0.56555 -2.79797,0.56555 -1.97445,0 -3.31391,-0.57547 -1.32953,-0.57547 -2.09351,-1.7264 -0.75406,-1.16086 -0.79375,-2.61938 z" />
    <path
       inkscape:connector-curvature="0"
       id="path16"
       style="font-style:normal;font-variant:normal;font-weight:normal;font-stretch:normal;font-size:20.3200016px;line-height:1.25;font-family:Arial;-inkscape-font-specification:Arial;text-align:center;letter-spacing:0px;word-spacing:0px;text-anchor:middle;fill:#ececec;fill-opacity:1;stroke:#ffffff;stroke-width:0.28222224"
       d="m 252.91423,258.26098 0.25797,1.57758 q -0.75406,0.15875 -1.34937,0.15875 -0.97235,0 -1.50813,-0.30758 -0.53578,-0.30758 -0.75406,-0.80367 -0.21828,-0.50601 -0.21828,-2.11336 v -6.06226 h -1.30969 v -1.38907 h 1.30969 v -2.60945 l 1.77601,-1.07156 v 3.68101 h 1.79586 v 1.38907 h -1.79586 v 6.16148 q 0,0.76398 0.0893,0.98227 0.0992,0.21828 0.30758,0.34726 0.21828,0.12899 0.61516,0.12899 0.29765,0 0.78383,-0.0695 z" />
    <path
       inkscape:connector-curvature="0"
       id="path18"
       style="font-style:normal;font-variant:normal;font-weight:normal;font-stretch:normal;font-size:20.3200016px;line-height:1.25;font-family:Arial;-inkscape-font-specification:Arial;text-align:center;letter-spacing:0px;word-spacing:0px;text-anchor:middle;fill:#ececec;fill-opacity:1;stroke:#ffffff;stroke-width:0.28222224"
       d="m 261.52642,258.55864 q -0.99219,0.84336 -1.91492,1.19062 -0.91281,0.34727 -1.96453,0.34727 -1.73633,0 -2.66899,-0.84336 -0.93265,-0.85328 -0.93265,-2.17289 0,-0.77391 0.34726,-1.40891 0.35719,-0.64492 0.92274,-1.03187 0.57547,-0.38695 1.28984,-0.58539 0.52586,-0.13891 1.5875,-0.26789 2.16297,-0.25797 3.18492,-0.61516 0.01,-0.36711 0.01,-0.46633 0,-1.0914 -0.50601,-1.53789 -0.68461,-0.60523 -2.03399,-0.60523 -1.26007,0 -1.86531,0.44648 -0.59531,0.43656 -0.88305,1.55774 l -1.74625,-0.23813 q 0.23813,-1.12117 0.78383,-1.80578 0.54571,-0.69453 1.57758,-1.06164 1.03188,-0.37703 2.39117,-0.37703 1.34938,0 2.19274,0.3175 0.84336,0.3175 1.24023,0.80367 0.39688,0.47625 0.55563,1.21047 0.0893,0.4564 0.0893,1.64703 v 2.38125 q 0,2.49039 0.10914,3.15516 0.11906,0.65484 0.4564,1.26007 h -1.86531 q -0.27781,-0.55562 -0.35719,-1.29976 z m -0.14883,-3.98859 q -0.97234,0.39687 -2.91703,0.67468 -1.10133,0.15875 -1.55773,0.35719 -0.45641,0.19844 -0.70446,0.58539 -0.24804,0.37703 -0.24804,0.84336 0,0.71438 0.53578,1.19063 0.5457,0.47625 1.5875,0.47625 1.03187,0 1.83555,-0.44649 0.80367,-0.45641 1.1807,-1.24023 0.28773,-0.60524 0.28773,-1.78594 z" />
    <path
       inkscape:connector-curvature="0"
       id="path20"
       style="font-style:normal;font-variant:normal;font-weight:normal;font-stretch:normal;font-size:20.3200016px;line-height:1.25;font-family:Arial;-inkscape-font-specification:Arial;text-align:center;letter-spacing:0px;word-spacing:0px;text-anchor:middle;fill:#ececec;fill-opacity:1;stroke:#ffffff;stroke-width:0.28222224"
       d="m 265.97142,247.36676 v -2.05383 h 1.78594 v 2.05383 z m 0,12.49164 v -10.53703 h 1.78594 v 10.53703 z" />
    <path
       inkscape:connector-curvature="0"
       id="path22"
       style="font-style:normal;font-variant:normal;font-weight:normal;font-stretch:normal;font-size:20.3200016px;line-height:1.25;font-family:Arial;-inkscape-font-specification:Arial;text-align:center;letter-spacing:0px;word-spacing:0px;text-anchor:middle;fill:#ececec;fill-opacity:1;stroke:#ffffff;stroke-width:0.28222224"
       d="m 270.48588,259.8584 v -10.53703 h 1.60734 v 1.49821 q 1.16086,-1.73633 3.35359,-1.73633 0.9525,0 1.74625,0.34726 0.80368,0.33735 1.20055,0.89297 0.39688,0.55563 0.55563,1.31961 0.0992,0.4961 0.0992,1.73633 v 6.47898 h -1.78594 v -6.40953 q 0,-1.0914 -0.20836,-1.62718 -0.20836,-0.54571 -0.74414,-0.86321 -0.52586,-0.32742 -1.24024,-0.32742 -1.14101,0 -1.97445,0.7243 -0.82351,0.72429 -0.82351,2.74836 v 5.75468 z" />
    <path
       inkscape:connector-curvature="0"
       id="path24"
       style="font-style:normal;font-variant:normal;font-weight:normal;font-stretch:normal;font-size:20.3200016px;line-height:1.25;font-family:Arial;-inkscape-font-specification:Arial;text-align:center;letter-spacing:0px;word-spacing:0px;text-anchor:middle;fill:#ececec;fill-opacity:1;stroke:#ffffff;stroke-width:0.28222224"
       d="m 247.16947,283.54192 v 1.71649 h -9.6143 q -0.0198,-0.64493 0.20836,-1.24024 0.36711,-0.98226 1.17078,-1.93476 0.81359,-0.9525 2.34156,-2.20266 2.37133,-1.94469 3.20477,-3.07578 0.83344,-1.14102 0.83344,-2.15305 0,-1.06164 -0.76399,-1.78594 -0.75406,-0.73421 -1.97445,-0.73421 -1.28985,0 -2.06375,0.7739 -0.77391,0.77391 -0.78383,2.14313 l -1.83555,-0.18852 q 0.18852,-2.05383 1.41883,-3.12539 1.23031,-1.08148 3.30399,-1.08148 2.09351,0 3.3139,1.16086 1.22039,1.16085 1.22039,2.87734 0,0.87312 -0.35718,1.71648 -0.35719,0.84336 -1.19063,1.77602 -0.82352,0.93266 -2.74836,2.55984 -1.60734,1.34938 -2.06375,1.83555 -0.45641,0.47625 -0.75406,0.96242 z" />
    <path
       inkscape:connector-curvature="0"
       id="path26"
       style="font-style:normal;font-variant:normal;font-weight:normal;font-stretch:normal;font-size:20.3200016px;line-height:1.25;font-family:Arial;-inkscape-font-specification:Arial;text-align:center;letter-spacing:0px;word-spacing:0px;text-anchor:middle;fill:#ececec;fill-opacity:1;stroke:#ffffff;stroke-width:0.28222224"
       d="m 249.09431,278.08489 q 0,-2.57969 0.52586,-4.14734 0.53578,-1.57758 1.57758,-2.43086 1.05172,-0.85328 2.63922,-0.85328 1.17078,0 2.05383,0.47625 0.88304,0.46632 1.45851,1.35929 0.57547,0.88305 0.90289,2.16297 0.32742,1.27 0.32742,3.43297 0,2.55984 -0.52586,4.13742 -0.52585,1.56766 -1.57757,2.43086 -1.0418,0.85328 -2.63922,0.85328 -2.10344,0 -3.30399,-1.50812 -1.43867,-1.8157 -1.43867,-5.91344 z m 1.83555,0 q 0,3.5818 0.83344,4.77242 0.84336,1.18071 2.07367,1.18071 1.23031,0 2.06375,-1.19063 0.84336,-1.19062 0.84336,-4.7625 0,-3.59172 -0.84336,-4.77242 -0.83344,-1.1807 -2.0836,-1.1807 -1.23031,0 -1.96453,1.04179 -0.92273,1.32953 -0.92273,4.91133 z" />
    <path
       inkscape:connector-curvature="0"
       id="path28"
       style="font-style:normal;font-variant:normal;font-weight:normal;font-stretch:normal;font-size:20.3200016px;line-height:1.25;font-family:Arial;-inkscape-font-specification:Arial;text-align:center;letter-spacing:0px;word-spacing:0px;text-anchor:middle;fill:#ececec;fill-opacity:1;stroke:#ffffff;stroke-width:0.28222224"
       d="m 260.74259,274.20544 q 0,-1.55774 0.78383,-2.64914 0.78383,-1.09141 2.27211,-1.09141 1.36922,0 2.26219,0.98227 0.90289,0.97234 0.90289,2.86742 0,1.84547 -0.91281,2.84758 -0.90289,0.99218 -2.23242,0.99218 -1.31961,0 -2.20266,-0.98226 -0.87313,-0.98227 -0.87313,-2.96664 z m 3.10555,-2.51024 q -0.66476,0 -1.11125,0.57547 -0.43656,0.57547 -0.43656,2.11336 0,1.39899 0.44648,1.97445 0.44649,0.56555 1.10133,0.56555 0.67469,0 1.11125,-0.57547 0.44649,-0.57547 0.44649,-2.10344 0,-1.4089 -0.44649,-1.97445 -0.44648,-0.57547 -1.11125,-0.57547 z m 0.01,14.09899 7.95735,-15.3293 h 1.44859 l -7.92758,15.3293 z m 6.29047,-3.94891 q 0,-1.56765 0.78383,-2.64914 0.78383,-1.09141 2.28203,-1.09141 1.36922,0 2.26219,0.98227 0.90289,0.97234 0.90289,2.86742 0,1.84547 -0.91281,2.84758 -0.9029,0.99219 -2.24235,0.99219 -1.31961,0 -2.20265,-0.98227 -0.87313,-0.99219 -0.87313,-2.96664 z m 3.11547,-2.51023 q -0.67469,0 -1.12117,0.57547 -0.43657,0.57546 -0.43657,2.11336 0,1.38906 0.44649,1.96453 0.44648,0.57547 1.10133,0.57547 0.68461,0 1.12117,-0.57547 0.44648,-0.57547 0.44648,-2.10344 0,-1.40891 -0.44648,-1.97445 -0.44649,-0.57547 -1.11125,-0.57547 z" />
  </g>
</svg>
